<svg enable-background="new 0 0 36.4 37.2" viewBox="0 0 36.4 37.2" xmlns="http://www.w3.org/2000/svg"><g clip-rule="evenodd" fill-rule="evenodd"><g style="opacity:.6;fill:#fff;stroke:#fff;stroke-width:1.6577;stroke-linecap:round;stroke-linejoin:round"><path d="m.8 11c1.1 1.1 4.3 4.9 5.6 6.6s3.4 4.9 4.1 6.3 2.2 3.7 3.2 6.4 1.5 4 1.9 6.1c-.7-3.8-3.1-14.7-3.6-16.7-1.1-.8-2.7-2-2.9-2.3-.3-.2-2.3-1.8-2.8-2.1-.5-.4-5-3.9-5.1-4s-.4-.3-.4-.3z"/><path d="m9.5 15.2c.4.4.8.8 1.8 2.1.9 1.3 1.6 2.6 2 3.4s1.5 3.4 2.1 5.3 1.8 6.7 1.9 8.7c0 0 .1.9.1.9v-13s-2.1-1.9-2.3-2.1-2.4-2.2-2.5-2.3-1.9-1.7-2-1.8-.3-.3-.4-.4c0-.2-.7-.9-.7-.8z"/><path d="m19 22.5s6.1-5.7 6.4-5.9 1.6-1.4 1.6-1.4-1.1 1.2-1.5 1.7-1.3 1.8-2 3.2c-.7 1.3-1.6 3.2-2.4 5.7s-1.1 3.9-1.3 4.8-.5 2.5-.5 2.8-.3 1.7-.3 2.2c0-1.1 0-13.1 0-13.1z"/><path d="m24.4 19.7s1.2-.9 1.6-1.2 3-2.3 3.7-2.8c.6-.5 3-2.3 3.4-2.6s2.6-2 2.6-2-1.9 2-2.2 2.4-1.7 2.1-2.1 2.6-1.7 2.2-2.3 3-2.4 3.6-3 4.7c-.6 1-1.9 3.6-2.1 3.9-.1.2-1.4 3.1-1.9 4.3-.4 1.2-.8 2.5-.9 2.7s-.4 1.8-.4 1.8.7-3.4.8-3.8.9-4.3 1-4.8 1-4.8 1.1-5.3c.2-.6.7-2.9.7-2.9z"/><path d="m7.4 12.2h3.4v.5h-3.4z"/><path d="m12.6 12.7h.5s.2-.3.3-.5c0-.2.8-2.7.8-2.7l-2.4-7.1h-4.5v.6h1.9s.1.1.2.2c0 .1.2.8.2.8s2.9 8.6 2.9 8.6c.1.1.1.1.1.1z"/><path d="m16.3 12.7c0-.4.6-1.4.8-1.8s.9-1.4 1.1-1.6.7-.7.7-.8c.1-.1.2 0 .2 0v3.6h1.3v.6z"/><path d="m31.2 1.1c-.2-.1-.7-.2-1.4-.2s-1.5.2-2.3.4-1.5.5-2.7 1.1-2.5 1.4-3.3 1.9c-.7.5-1.6 1.1-1.9 1.4-.3.2-.4.3-.4.3h-.1v-3h1.2v-.5h-3.9v3.6s0 0-.2 0c-.1 0-.5-.2-1-.5s-1-1-.9-1.8c0-.8.6-1.5 1.5-2 .9-.4 2.1-.7 3-.7s1.6 0 2.1.1 1.2.2 1.6.3c.3.1.8.2.9.3 0 .2.1.2.2.1.1 0 0-.1 0-.1 0-.1-.2-.1-.2-.1s-.5-.2-.9-.3-1.7-.4-2.4-.5c-.8 0-2.3-.1-3.4.2s-2.8.8-3.4 2-.1 2.1.9 2.9c.5.4 2.2.8 2.2.8v1.7s-.9 1.1-1.1 1.5c-.3.4-1 1.7-1.1 3s.5 2.1 1.1 2.4c.6.4 1.3.5 2.1.6s2 0 2.8-.2c.9-.2 1.8-.7 2.6-1.2.9-.5 1.4-.9 2.3-1.9s1.1-2 1-3c-.1-.9-1-1.3-1.6-1.3-.7 0-1.4.1-2.3.5-.9.5-1.4 1-1.7 1.4s-.6.9-.7 1 .1.4.3.2.4-.6.8-1.1c.5-.5.9-.8 1.3-1.1s1.1-.5 1.7-.6.9-.1 1.2.3c.3.3.5.7.3 1.7s-1.1 2.2-1.9 2.8-2 1.4-3 1.8-1.9.5-3.1.2-1.3-1.4-1.4-1.6 0-.6 0-1 .5-1.4.7-1.8 1-1.6 1.7-2.5c.8-.9 1.9-1.8 1.9-1.8s.8-.1 1.4-.1c.7 0 1.3-.2 2-.3s2.4-.5 3.3-.8 2.1-.9 3-1.5 1.5-1.3 1.6-1.9c.2-.5-.1-.9-.4-1.1zm-1.1 1.9c-.6.6-.9.7-1.2.9s-1.6.9-2.1 1.1-1 .4-2.3.8-2.1.5-2.7.6c-.5.1-.9 0-.9 0s.8-.7 1.2-1 1.5-1.2 2.2-1.6c.7-.5 2.3-1.3 2.7-1.5s1.5-.6 2.2-.8 1.4-.2 1.5.2c.2.3 0 .7-.6 1.3z"/></g><path d="m.8 11c1.1 1.1 4.3 4.9 5.6 6.6s3.4 4.9 4.1 6.3 2.2 3.7 3.2 6.4 1.5 4 1.9 6.1c-.7-3.8-3.1-14.7-3.6-16.7-1.1-.8-2.7-2-2.9-2.3-.3-.2-2.3-1.8-2.8-2.1-.5-.4-5-3.9-5.1-4s-.4-.3-.4-.3z" fill="#0b308e"/><path d="m9.5 15.2c.4.4.8.8 1.8 2.1.9 1.3 1.6 2.6 2 3.4s1.5 3.4 2.1 5.3 1.8 6.7 1.9 8.7c0 0 .1.9.1.9v-13s-2.1-1.9-2.3-2.1-2.4-2.2-2.5-2.3-1.9-1.7-2-1.8-.3-.3-.4-.4c0-.2-.7-.9-.7-.8z" fill="#e7380d"/><path d="m19 22.5s6.1-5.7 6.4-5.9 1.6-1.4 1.6-1.4-1.1 1.2-1.5 1.7-1.3 1.8-2 3.2c-.7 1.3-1.6 3.2-2.4 5.7s-1.1 3.9-1.3 4.8-.5 2.5-.5 2.8-.3 1.7-.3 2.2c0-1.1 0-13.1 0-13.1z" fill="#009844"/><g fill="#0b308e"><path d="m24.4 19.7s1.2-.9 1.6-1.2 3-2.3 3.7-2.8c.6-.5 3-2.3 3.4-2.6s2.6-2 2.6-2-1.9 2-2.2 2.4-1.7 2.1-2.1 2.6-1.7 2.2-2.3 3-2.4 3.6-3 4.7c-.6 1-1.9 3.6-2.1 3.9-.1.2-1.4 3.1-1.9 4.3-.4 1.2-.8 2.5-.9 2.7s-.4 1.8-.4 1.8.7-3.4.8-3.8.9-4.3 1-4.8 1-4.8 1.1-5.3c.2-.6.7-2.9.7-2.9z"/><path d="m7.4 12.2h3.4v.5h-3.4z"/><path d="m12.6 12.7h.5s.2-.3.3-.5c0-.2.8-2.7.8-2.7l-2.4-7.1h-4.5v.6h1.9s.1.1.2.2c0 .1.2.8.2.8s2.9 8.6 2.9 8.6c.1.1.1.1.1.1z"/><path d="m16.3 12.7c0-.4.6-1.4.8-1.8s.9-1.4 1.1-1.6.7-.7.7-.8c.1-.1.2 0 .2 0v3.6h1.3v.6z"/><path d="m31.2 1.1c-.2-.1-.7-.2-1.4-.2s-1.5.2-2.3.4-1.5.5-2.7 1.1-2.5 1.4-3.3 1.9c-.7.5-1.6 1.1-1.9 1.4-.3.2-.4.3-.4.3h-.1v-3h1.2v-.5h-3.9v3.6s0 0-.2 0c-.1 0-.5-.2-1-.5s-1-1-.9-1.8c0-.8.6-1.5 1.5-2 .9-.4 2.1-.7 3-.7s1.6 0 2.1.1 1.2.2 1.6.3c.3.1.8.2.9.3 0 .2.1.2.2.1.1 0 0-.1 0-.1 0-.1-.2-.1-.2-.1s-.5-.2-.9-.3-1.7-.4-2.4-.5c-.8 0-2.3-.1-3.4.2s-2.8.8-3.4 2-.1 2.1.9 2.9c.5.4 2.2.8 2.2.8v1.7s-.9 1.1-1.1 1.5c-.3.4-1 1.7-1.1 3s.5 2.1 1.1 2.4c.6.4 1.3.5 2.1.6s2 0 2.8-.2c.9-.2 1.8-.7 2.6-1.2.9-.5 1.4-.9 2.3-1.9s1.1-2 1-3c-.1-.9-1-1.3-1.6-1.3-.7 0-1.4.1-2.3.5-.9.5-1.4 1-1.7 1.4s-.6.9-.7 1 .1.4.3.2.4-.6.8-1.1c.5-.5.9-.8 1.3-1.1s1.1-.5 1.7-.6.9-.1 1.2.3c.3.3.5.7.3 1.7s-1.1 2.2-1.9 2.8-2 1.4-3 1.8-1.9.5-3.1.2-1.3-1.4-1.4-1.6 0-.6 0-1 .5-1.4.7-1.8 1-1.6 1.7-2.5c.8-.9 1.9-1.8 1.9-1.8s.8-.1 1.4-.1c.7 0 1.3-.2 2-.3s2.4-.5 3.3-.8 2.1-.9 3-1.5 1.5-1.3 1.6-1.9c.2-.5-.1-.9-.4-1.1zm-1.1 1.9c-.6.6-.9.7-1.2.9s-1.6.9-2.1 1.1-1 .4-2.3.8-2.1.5-2.7.6c-.5.1-.9 0-.9 0s.8-.7 1.2-1 1.5-1.2 2.2-1.6c.7-.5 2.3-1.3 2.7-1.5s1.5-.6 2.2-.8 1.4-.2 1.5.2c.2.3 0 .7-.6 1.3z"/></g></g></svg>