<svg id="ttl-mv.svg" xmlns="http://www.w3.org/2000/svg" width="194.91" height="413.313" viewBox="0 0 194.91 413.313">
  <defs>
    <style>
      .cls-1 {
        fill: #464646;
        fill-rule: evenodd;
      }
    </style>
  </defs>
  <path id="と" class="cls-1" d="M4518.95,370.761a15.742,15.742,0,0,0,3.9-.384q1.44-.384,1.44-1.12c0-.7-0.6-1.056-1.79-1.056a14.142,14.142,0,0,0-2.08.256q-0.165.033-.99,0.16a10.921,10.921,0,0,1-1.67.128,5.2,5.2,0,0,1-3.64-1.12,3.635,3.635,0,0,1-1.22-2.784,4.814,4.814,0,0,1,2.66-4.64,19.341,19.341,0,0,1,5.5-1.888,4.463,4.463,0,0,0,1.41-.416,0.883,0.883,0,0,0,.45-0.832,1,1,0,0,0-.6-0.752,2.23,2.23,0,0,0-1.2-.368,5.388,5.388,0,0,0-1.69.608c-0.41.192-.81,0.363-1.22,0.512a2.912,2.912,0,0,1-.96.224,1.335,1.335,0,0,1-.99-0.56,4.333,4.333,0,0,1-.78-1.44,5.317,5.317,0,0,1-.31-1.808,8.143,8.143,0,0,1,.16-1.712,7.987,7.987,0,0,1,.48-1.392c0.15-.405.24-0.64,0.26-0.7,0.04-.106.12-0.314,0.22-0.624s0.2-.64.29-0.992a4.3,4.3,0,0,0,.13-1.072,2.345,2.345,0,0,0-1.51-2.432,3.865,3.865,0,0,0-.76-0.272,3.329,3.329,0,0,0-.77-0.112q-0.45,0-.45.192a0.54,0.54,0,0,0,.21.24c0.14,0.118.28,0.251,0.43,0.4a2.114,2.114,0,0,1,.54.832,3.4,3.4,0,0,1,.16,1.152,12.628,12.628,0,0,1-.35,2.72,17.333,17.333,0,0,0-.45,3.68,7.615,7.615,0,0,0,.4,2.624,4.839,4.839,0,0,0,1.33,1.888,0.715,0.715,0,0,1,.26.448,0.546,0.546,0,0,1-.32.448q-4.065,2.784-4.07,6.56a4.334,4.334,0,0,0,2.29,4.256,11.643,11.643,0,0,0,5.3,1.152h0Z" transform="translate(-4346.84 -277.062)"/>
  <path id="街" class="cls-1" d="M4505.81,280.321c0.41-.074.62-0.186,0.62-0.336q0-.39-1.35-1.12a9.99,9.99,0,0,1-1.23-.728l-1.29-.84a1.034,1.034,0,0,0-.67-0.224,0.878,0.878,0,0,0-.89.728,33.762,33.762,0,0,1-2.16,4.424,34.3,34.3,0,0,1-2.77,4.144,53.307,53.307,0,0,1-3.81,4.592,2.054,2.054,0,0,0-.56.952l0.11,0.224a0.425,0.425,0,0,0,.45.112,1.568,1.568,0,0,0,.73-0.392,51.014,51.014,0,0,0,6.07-5.1,76.831,76.831,0,0,0,5.3-5.656,1.769,1.769,0,0,1,1.34-.784h0.11Zm31.59,11.032a0.717,0.717,0,0,0-.48.252,6.2,6.2,0,0,0-.59.728c-0.22.318-.39,0.552-0.5,0.7l-0.62.9a1.6,1.6,0,0,1-1.4.728h-2.18c-2.21-.074-3.85-0.168-4.93-0.28a1.124,1.124,0,0,0-.81.168,0.662,0.662,0,0,0-.31.56,1.421,1.421,0,0,0,.17.616l0.11,0.112c-0.15-.112-0.49-0.354-1.01-0.728s-1.12-.8-1.79-1.288a0.655,0.655,0,0,0-.45.224,5.2,5.2,0,0,0-.53.644c-0.21.28-.38,0.514-0.53,0.7l-0.56.84a1.621,1.621,0,0,1-1.4.728h-1.63a1.073,1.073,0,0,1-1.17-1.176v-6.44a1.073,1.073,0,0,1,1.17-1.176h6.67a1.71,1.71,0,0,0,1.01-.28,0.8,0.8,0,0,0,.33-0.616,1.211,1.211,0,0,0-.28-0.672,10.331,10.331,0,0,0-1.99-2.016,4.4,4.4,0,0,0-1.82-1.12,0.617,0.617,0,0,0-.44.224,5.306,5.306,0,0,0-.54.672c-0.2.3-.36,0.524-0.47,0.672l-0.51.728a1.567,1.567,0,0,1-1.4.784h-0.56a1.073,1.073,0,0,1-1.17-1.176v-2.912a1.671,1.671,0,0,1,.78-1.4l0.06-.056a0.756,0.756,0,0,0,.45-0.5c0-.448-1.22-1.064-3.64-1.848l-0.51-.112a0.826,0.826,0,0,0-.64.28,1.04,1.04,0,0,0-.25.728v0.112c0.14,1.68.26,3.584,0.33,5.712a1.037,1.037,0,0,1-1.17,1.176h-1.52c-1.71-.074-3.02-0.148-3.92-0.224-0.71-.074-1.06.132-1.06,0.616a1.521,1.521,0,0,0,.17.672l0.17,0.392a1.176,1.176,0,0,0,1.06.728,1.428,1.428,0,0,0,.45-0.056,15.012,15.012,0,0,1,3.36-.5h1.29a1.073,1.073,0,0,1,1.17,1.176v6.44a1.073,1.073,0,0,1-1.17,1.176h-1.85c-2.06-.074-3.57-0.168-4.54-0.28a1.266,1.266,0,0,0-.84.14,0.611,0.611,0,0,0-.28.532,1.521,1.521,0,0,0,.17.672l0.22,0.392a1.158,1.158,0,0,0,1.12.728h0.34a60.634,60.634,0,0,1,7.39-.616h11.82a1.193,1.193,0,0,0,1.4-.84,0.657,0.657,0,0,0-.09-0.224,0.736,0.736,0,0,1-.08-0.28c0-.224.37-0.428,1.12-0.616a12.062,12.062,0,0,1,1.96-.28h0.9a1.073,1.073,0,0,1,1.17,1.176v25.088a1.186,1.186,0,0,1-.22.84,1.533,1.533,0,0,1-1.01.224l-2.3-.112c-1.79-.148-3.11-0.224-3.97-0.224-0.56,0-.84.094-0.84,0.28,0,0.3.37,0.5,1.12,0.616a8.977,8.977,0,0,1,3.81,1.344,3.823,3.823,0,0,1,1,1.568,1.147,1.147,0,0,0,1.12,1.008h0.28c1.83-.373,3.05-0.989,3.64-1.848a6.183,6.183,0,0,0,.9-3.584v-25.2a1.074,1.074,0,0,1,1.18-1.176h3.58a1.689,1.689,0,0,0,1.01-.28,0.8,0.8,0,0,0,.33-0.616,1.211,1.211,0,0,0-.28-0.672,13.274,13.274,0,0,0-2.15-2.128,5,5,0,0,0-1.93-1.232h0Zm2.24-6.888a1.447,1.447,0,0,0,1.06-.336,0.685,0.685,0,0,0,.22-0.5,1.211,1.211,0,0,0-.28-0.672,11.894,11.894,0,0,0-2.15-2.184,5.225,5.225,0,0,0-1.88-1.232,0.753,0.753,0,0,0-.5.28,3.592,3.592,0,0,0-.53.672,8.117,8.117,0,0,1-.48.672l-0.56.84a1.578,1.578,0,0,1-1.4.784h-1.85c-1.87-.074-3.28-0.148-4.25-0.224-0.71-.074-1.07.15-1.07,0.672a1.421,1.421,0,0,0,.17.616l0.22,0.5a1.158,1.158,0,0,0,1.12.728h0.34a57.852,57.852,0,0,1,7.28-.616h4.54Zm-38.42,13.16q1.845-2.463,3.47-5.04a1.872,1.872,0,0,1,1.23-.728h0.17c0.37-.074.56-0.186,0.56-0.336q0-.558-3.92-2.632a1.483,1.483,0,0,0-.73-0.224,0.952,0.952,0,0,0-.84.784,40.967,40.967,0,0,1-3.92,8.9,85.307,85.307,0,0,1-5.43,8.288,1.919,1.919,0,0,0-.45.9,0.366,0.366,0,0,0,.12.28c0.22,0.224.59,0.076,1.12-.448a38.4,38.4,0,0,0,3.69-3.752,1.232,1.232,0,0,1,.79-0.448c0.44,0,.67.336,0.67,1.008v8.568c-0.04,3.36-.11,6.076-0.23,8.148s-0.24,4.209-.39,6.412a1.009,1.009,0,0,0,.39.784,1.264,1.264,0,0,0,.84.336,4.431,4.431,0,0,0,2.64-1.008,1.348,1.348,0,0,0,.56-1.176v-0.224q-0.285-6.216-.4-12.32V302.553a1.266,1.266,0,0,1,.79-1.288,0.774,0.774,0,0,0,.5-0.56,2.233,2.233,0,0,0-1.01-1.344,1.429,1.429,0,0,1-.5-0.952,1.513,1.513,0,0,1,.28-0.784h0Zm25.42,18.144-8.51,1.4a1.047,1.047,0,0,1-.95-0.2,1.132,1.132,0,0,1-.34-0.868v-5.656a1.074,1.074,0,0,1,1.18-1.176h7.67a1.689,1.689,0,0,0,1.01-.28,0.817,0.817,0,0,0,.34-0.616,1.29,1.29,0,0,0-.28-0.672,12.616,12.616,0,0,0-2.08-2.044,4.788,4.788,0,0,0-1.79-1.148,0.655,0.655,0,0,0-.45.224,5.391,5.391,0,0,0-.53.672c-0.2.3-.36,0.524-0.47,0.672l-0.56.84a1.621,1.621,0,0,1-1.4.728h-1.46a1.074,1.074,0,0,1-1.18-1.176v-2.912a1.461,1.461,0,0,1,.73-1.4,0.589,0.589,0,0,0,.34-0.448q0-.672-3.42-1.736a3.364,3.364,0,0,0-.56-0.112,0.8,0.8,0,0,0-.84.952v0.112c0.15,1.568.26,3.416,0.34,5.544a1.04,1.04,0,0,1-1.18,1.176h-1.57c-1.86-.074-3.28-0.148-4.25-0.224-0.71-.074-1.07.15-1.07,0.672a1.421,1.421,0,0,0,.17.616l0.17,0.392a1.108,1.108,0,0,0,1.06.728,1.428,1.428,0,0,0,.45-0.056,15.576,15.576,0,0,1,3.53-.5h1.51a1.074,1.074,0,0,1,1.18,1.176v6.44a1.13,1.13,0,0,1-1.07,1.232q-4.7.84-7.22,1.12a0.8,0.8,0,0,0-.9.84,1.421,1.421,0,0,0,.17.616l1.18,2.3a1.124,1.124,0,0,0,.95.728,0.711,0.711,0,0,0,.62-0.336l0.16-.224a2.022,2.022,0,0,1,.96-0.5q8.73-2.574,18.64-5.936a2.655,2.655,0,0,0,.73-0.336,0.489,0.489,0,0,0,.23-0.392v-0.056a0.544,0.544,0,0,0-.56-0.28Z" transform="translate(-4346.84 -277.062)"/>
  <path id="輝く未来" class="cls-1" d="M4362.37,437.547h-1.45a1.074,1.074,0,0,1-1.18-1.176V421.363a1.671,1.671,0,0,1,.78-1.4l0.06-.056a0.751,0.751,0,0,0,.45-0.56c0-.448-1.22-1.064-3.64-1.848a1.818,1.818,0,0,0-.51-0.112,0.8,0.8,0,0,0-.84.952v0.224a86.81,86.81,0,0,1,.51,9.968v7.84a1.074,1.074,0,0,1-1.18,1.176h-1.68c-2.01-.074-3.51-0.148-4.48-0.224-0.71-.074-1.06.132-1.06,0.616a1.4,1.4,0,0,0,.17.672l0.11,0.224a1.035,1.035,0,0,0,.95.672,1.4,1.4,0,0,0,.62-0.112,6.048,6.048,0,0,1,1.28-.28h0.28a1.04,1.04,0,0,1,1.18,1.176,129.791,129.791,0,0,1-.84,14.924,35.5,35.5,0,0,1-3.36,11.452,4.388,4.388,0,0,0-.22.784,0.753,0.753,0,0,0,.22.56,0.429,0.429,0,0,0,.5.028,1.662,1.662,0,0,0,.68-0.644,28.035,28.035,0,0,0,3.89-7.868,45.447,45.447,0,0,0,1.85-8.82c0.31-2.986.53-6.458,0.64-10.416a1.04,1.04,0,0,1,1.18-1.176h1.9a1.074,1.074,0,0,1,1.18,1.176V455.8a1.405,1.405,0,0,1-.9,1.4c-0.11.038-.56,0.224-1.34,0.56a0.921,0.921,0,0,0-.73.952,1.3,1.3,0,0,0,.17.616l1,1.9a1.024,1.024,0,0,0,.9.672,0.654,0.654,0,0,0,.62-0.56l0.05-.112a2.6,2.6,0,0,1,.67-0.672c1.65-1.268,3.92-3.116,6.84-5.544l1.06-.84a1.524,1.524,0,0,0,.62-0.9v-0.112c-0.04-.112-0.17-0.148-0.4-0.112a4.758,4.758,0,0,0-.89.28l-3.08,1.456a1.418,1.418,0,0,1-.62.168q-0.78,0-.78-1.064V440.291a1.073,1.073,0,0,1,1.17-1.176h3.42a1.691,1.691,0,0,0,1.01-.224,0.852,0.852,0,0,0,.33-0.672,0.958,0.958,0,0,0-.22-0.616,10.94,10.94,0,0,0-1.9-1.876,4.307,4.307,0,0,0-1.68-1.036,0.589,0.589,0,0,0-.42.2,5.16,5.16,0,0,0-.51.616c-0.2.28-.36,0.5-0.47,0.644l-0.51.672a1.6,1.6,0,0,1-1.4.728h0Zm10.53-17.7-0.11-.448a1.19,1.19,0,0,0-.67-1.12c-0.23,0-.43.374-0.62,1.12a9.582,9.582,0,0,1-.76,2.184,7.129,7.129,0,0,1-1.2,1.848,2.516,2.516,0,0,1-.5.476,4.162,4.162,0,0,0-.56.476,2.052,2.052,0,0,0-.79,1.624,2.445,2.445,0,0,0,.17.84,1.573,1.573,0,0,0,1.51.84,2.508,2.508,0,0,0,1.85-.728,6.669,6.669,0,0,0,1.68-3.808,1.144,1.144,0,0,1,1.23-1.12h16.35a0.879,0.879,0,0,1,1.07.9l-0.11.448-0.73,1.9a1.9,1.9,0,0,0-.23.84,0.439,0.439,0,0,0,.17.392,0.539,0.539,0,0,0,.45.028,4.215,4.215,0,0,0,.67-0.364,34.735,34.735,0,0,0,3.53-3.024,2.169,2.169,0,0,1,1.4-.672h0.11c0.37-.074.56-0.2,0.56-0.392,0-.448-0.8-1.548-2.41-3.3a1.122,1.122,0,0,0-.89-0.5,1.218,1.218,0,0,0-.84.5,6.213,6.213,0,0,1-.79.9,1.7,1.7,0,0,1-1.45.672h-16.97a0.969,0.969,0,0,1-1.12-.5h0Zm-9.46,2.072a51.089,51.089,0,0,1-1.4,9.968l-0.34,1.456-0.11.672q0,0.5.33,0.5a1.156,1.156,0,0,0,.79-0.84,89.641,89.641,0,0,0,4.14-9.184,2.076,2.076,0,0,1,1.07-1.12l0.11-.056a0.855,0.855,0,0,0,.61-0.5c0-.336-0.71-0.69-2.12-1.064l-1.74-.728a1.27,1.27,0,0,0-.56-0.112,0.725,0.725,0,0,0-.56.252,1.1,1.1,0,0,0-.22.756h0Zm-14.28.56a34.153,34.153,0,0,1,2.07,10.416,1.476,1.476,0,0,0,.67,1.4,1.245,1.245,0,0,0,1.82-.728,4.971,4.971,0,0,0,.48-2.352,12.367,12.367,0,0,0-.96-4.424,17.613,17.613,0,0,0-3.08-4.984,1.2,1.2,0,0,0-.89-0.616h-0.11c-0.27.076-.27,0.5,0,1.288h0Zm40.65,13.384h-5.09a1.074,1.074,0,0,1-1.18-1.176v-1.96a1.074,1.074,0,0,1,1.18-1.176h10.3a1.946,1.946,0,0,0,1.06-.28,0.788,0.788,0,0,0,.34-0.616,1.211,1.211,0,0,0-.28-0.672,13.384,13.384,0,0,0-2.04-1.932,4.733,4.733,0,0,0-1.77-1.092,0.692,0.692,0,0,0-.45.2,3.844,3.844,0,0,0-.53.644,4.535,4.535,0,0,1-.47.616l-0.51.728a1.6,1.6,0,0,1-1.4.728h-4.25a1.074,1.074,0,0,1-1.18-1.176v-0.56a1.6,1.6,0,0,1,.73-1.4l0.17-.112a0.777,0.777,0,0,0,.44-0.616,1.214,1.214,0,0,0-.81-0.756,21.844,21.844,0,0,0-2.83-1.092l-0.5-.112a0.825,0.825,0,0,0-.84,1.008v0.112c0.07,0.71.15,1.886,0.22,3.528a1.037,1.037,0,0,1-1.17,1.176h-3.42c-2.57-.074-4.5-0.168-5.77-0.28a1.137,1.137,0,0,0-.78.14,0.611,0.611,0,0,0-.28.532,1.521,1.521,0,0,0,.17.672l0.22,0.448a1.2,1.2,0,0,0,1.18.784h0.28a36.969,36.969,0,0,1,5.82-.616h2.58a1.061,1.061,0,0,1,1.17,1.176v1.96a1.061,1.061,0,0,1-1.17,1.176h-4.48a3.718,3.718,0,0,1-1.46-.336l-2.24-1.008a1.24,1.24,0,0,0-.56-0.112,0.7,0.7,0,0,0-.73.84v0.224a83.719,83.719,0,0,1,.4,8.68v3.36c-0.08,2.2-.19,4.052-0.34,5.544a1.254,1.254,0,0,0,.25.784,0.738,0.738,0,0,0,.59.336,4.178,4.178,0,0,0,1.9-.392,1.177,1.177,0,0,0,.79-0.672v-0.5a1.073,1.073,0,0,1,1.17-1.176h4.71a1.061,1.061,0,0,1,1.17,1.176v3.248a1.061,1.061,0,0,1-1.17,1.176h-5.1c-2.57-.074-4.5-0.168-5.77-0.28-0.74-.074-1.12.168-1.12,0.728a1.421,1.421,0,0,0,.17.616l0.28,0.5a1.158,1.158,0,0,0,1.12.728h0.34a52.842,52.842,0,0,1,6.94-.616h3.14a1.061,1.061,0,0,1,1.17,1.176v2.072q-0.1,3.247-.33,5.32a1.17,1.17,0,0,0,.28.784,0.955,0.955,0,0,0,.78.336,3.317,3.317,0,0,0,1.32-.308,4.529,4.529,0,0,0,1.2-.756,1.131,1.131,0,0,0,.34-0.56,5.611,5.611,0,0,0,.05-0.84c-0.07-.9-0.11-1.68-0.11-2.352l-0.11-2.072v-1.624a1.074,1.074,0,0,1,1.18-1.176h12.15a1.71,1.71,0,0,0,1.01-.28,0.935,0.935,0,0,0,.33-0.616,0.846,0.846,0,0,0-.28-0.616,11.318,11.318,0,0,0-2.01-2.072,4.563,4.563,0,0,0-1.85-1.176,0.655,0.655,0,0,0-.45.224,4.593,4.593,0,0,0-.53.672q-0.315.45-.48,0.672l-0.5.728a1.59,1.59,0,0,1-1.4.784h-5.99a1.074,1.074,0,0,1-1.18-1.176v-3.248a1.074,1.074,0,0,1,1.18-1.176h4.98a1.489,1.489,0,0,1,.87.224,0.738,0.738,0,0,1,.31.616,1.245,1.245,0,0,0,.14.644,0.4,0.4,0,0,0,.36.252,4.534,4.534,0,0,0,2.52-.728,1.207,1.207,0,0,0,.56-1.12v-0.28q-0.12-2.91-.28-8.456v-3.752a1.381,1.381,0,0,1,1.01-1.344l0.28-.112a0.756,0.756,0,0,0,.45-0.728,0.922,0.922,0,0,0-.17-0.56,8.664,8.664,0,0,0-1.65-1.736,3.461,3.461,0,0,0-1.49-.9,0.529,0.529,0,0,0-.39.168,3.61,3.61,0,0,0-.39.5c-0.15.224-.28,0.412-0.39,0.56l-0.23.392a1.567,1.567,0,0,1-1.4.784h0Zm-10.86,6.888h-4.71a1.073,1.073,0,0,1-1.17-1.176v-2.856a1.073,1.073,0,0,1,1.17-1.176h4.71a1.061,1.061,0,0,1,1.17,1.176v2.856a1.061,1.061,0,0,1-1.17,1.176h0Zm10.75,0h-4.98a1.074,1.074,0,0,1-1.18-1.176v-2.856a1.074,1.074,0,0,1,1.18-1.176h4.98a1.074,1.074,0,0,1,1.18,1.176v2.856a1.074,1.074,0,0,1-1.18,1.176h0Zm-15.46,1.624h4.71a1.061,1.061,0,0,1,1.17,1.176v3.08a1.061,1.061,0,0,1-1.17,1.176h-4.71a1.073,1.073,0,0,1-1.17-1.176v-3.08a1.073,1.073,0,0,1,1.17-1.176h0Zm10.48,0h4.98a1.074,1.074,0,0,1,1.18,1.176v3.08a1.074,1.074,0,0,1-1.18,1.176h-4.98a1.074,1.074,0,0,1-1.18-1.176v-3.08a1.074,1.074,0,0,1,1.18-1.176h0Zm-9.36,87.137a1.379,1.379,0,0,0,1.24-.616,2.886,2.886,0,0,0,.39-1.568q0-4.312-3.67-10.108a73.192,73.192,0,0,0-7.48-10,2.744,2.744,0,0,1-.78-1.792,2.921,2.921,0,0,1,.62-1.792q2.46-3.528,6.55-8.512a31.8,31.8,0,0,0,2.83-3.864,27.785,27.785,0,0,0,1.7-3.472,5.59,5.59,0,0,0,.45-1.848,2.682,2.682,0,0,0-1.23-2.24,9.158,9.158,0,0,0-2.41-1.26,6.78,6.78,0,0,0-2.13-.476q-0.72,0-.72.336a1.281,1.281,0,0,0,.64.672,7.129,7.129,0,0,1,.98.784,2.055,2.055,0,0,1,.56,1.512,7.044,7.044,0,0,1-.56,2.352,86.986,86.986,0,0,1-6.72,12.488,26.58,26.58,0,0,0-1.82,3.192,5.144,5.144,0,0,0-.53,2.128,4.527,4.527,0,0,0,.33,1.6,14.459,14.459,0,0,0,1.29,2.324q0.96,1.457,1.23,1.9a51.421,51.421,0,0,1,3.08,5.4,65.386,65.386,0,0,1,2.92,7.868,28.384,28.384,0,0,0,1.45,3.78,1.939,1.939,0,0,0,1.79,1.2h0Zm12.77,37.408h-12.71a1.074,1.074,0,0,1-1.18-1.176V560.02a1.074,1.074,0,0,1,1.18-1.176h16.07a1.989,1.989,0,0,0,1.07-.28,0.8,0.8,0,0,0,.33-0.616,1.211,1.211,0,0,0-.28-0.672,15.539,15.539,0,0,0-2.38-2.212,5.789,5.789,0,0,0-1.99-1.26,0.755,0.755,0,0,0-.5.308,7.793,7.793,0,0,0-.56.7c-0.19.262-.37,0.5-0.56,0.728l-0.73.952a1.6,1.6,0,0,1-1.4.728h-9.07a1.074,1.074,0,0,1-1.18-1.176v-4.872a1.624,1.624,0,0,1,.73-1.4l0.17-.112a0.753,0.753,0,0,0,.45-0.56c0-.485-1.37-1.157-4.09-2.016a1.767,1.767,0,0,0-.5-0.112,0.779,0.779,0,0,0-.62.252,0.928,0.928,0,0,0-.22.644v0.224q0.33,3.864.44,7.952a1.037,1.037,0,0,1-1.17,1.176h-9.86c-2.57-.074-4.52-0.168-5.82-0.28a1.148,1.148,0,0,0-.79.14,0.687,0.687,0,0,0-.28.588,1.425,1.425,0,0,0,.17.616l0.23,0.448a1.14,1.14,0,0,0,1.12.728h0.33a60.6,60.6,0,0,1,7.39-.616h7.51a1.061,1.061,0,0,1,1.17,1.176v7.728a1.061,1.061,0,0,1-1.17,1.176h-14.06c-2.57-.074-4.5-0.168-5.77-0.28-0.74-.074-1.12.168-1.12,0.728a1.425,1.425,0,0,0,.17.616l0.28,0.5a1.158,1.158,0,0,0,1.12.728h0.34a60.435,60.435,0,0,1,7.39-.616h8.29a0.81,0.81,0,0,1,1.01.784,1.425,1.425,0,0,1-.17.616,64.656,64.656,0,0,1-8.01,11.48,55.958,55.958,0,0,1-10.42,9.408,1.34,1.34,0,0,0-.72.9,0.314,0.314,0,0,0,.05.224q0.285,0.449,1.29-.168a56.629,56.629,0,0,0,11.28-8.064,55.046,55.046,0,0,0,8.82-10.3,1.188,1.188,0,0,1,.79-0.616,0.527,0.527,0,0,1,.45.28,1.426,1.426,0,0,1,.16.728v6.72c-0.03,3.36-.11,6.076-0.22,8.148s-0.24,4.209-.39,6.412a1.009,1.009,0,0,0,.39.784,1.411,1.411,0,0,0,.95.336,3.753,3.753,0,0,0,1.54-.336,5,5,0,0,0,1.32-.84,1.45,1.45,0,0,0,.45-1.064v-0.336q-0.285-6.327-.4-12.376V570.6h0.12a4.532,4.532,0,0,1,.44.9,51.212,51.212,0,0,0,7.87,12.768,42.048,42.048,0,0,0,10.5,9.072,1.418,1.418,0,0,0,.62.168,1.121,1.121,0,0,0,.95-0.672,3.88,3.88,0,0,1,1.85-1.68c0.11-.037.3-0.1,0.56-0.2a0.629,0.629,0,0,0,.45-0.364,1.341,1.341,0,0,0-.9-0.672,44.772,44.772,0,0,1-11.23-7.364A46.069,46.069,0,0,1,4376.48,572a1.033,1.033,0,0,1-.22-0.672,0.609,0.609,0,0,1,.28-0.532,1.259,1.259,0,0,1,.73-0.2h18.14a1.83,1.83,0,0,0,1.07-.28,0.8,0.8,0,0,0,.33-0.616,0.844,0.844,0,0,0-.28-0.616,15.155,15.155,0,0,0-2.41-2.324A5.951,5.951,0,0,0,4392,565.4a0.717,0.717,0,0,0-.48.252,6.979,6.979,0,0,0-.64.784c-0.27.355-.45,0.607-0.56,0.756l-0.73,1.008a1.666,1.666,0,0,1-1.46.728h0Zm0.06,68.208h-12.77a1.074,1.074,0,0,1-1.18-1.176V623.58a1.074,1.074,0,0,1,1.18-1.176h17.75a1.989,1.989,0,0,0,1.07-.28,0.884,0.884,0,0,0,.28-0.616,1.273,1.273,0,0,0-.28-0.616,11.853,11.853,0,0,0-2.33-2.24,5.754,5.754,0,0,0-2.1-1.288,0.734,0.734,0,0,0-.5.308,6.262,6.262,0,0,0-.56.7c-0.19.261-.38,0.5-0.56,0.728l-0.73.952a1.612,1.612,0,0,1-1.4.728h-10.64a1.074,1.074,0,0,1-1.18-1.176v-3.528a1.624,1.624,0,0,1,.73-1.4l0.17-.112a0.754,0.754,0,0,0,.45-0.56c0-.485-1.33-1.139-3.98-1.96a3.256,3.256,0,0,0-.56-0.112,0.8,0.8,0,0,0-.84.952V613q0.285,2.576.39,6.608a1.037,1.037,0,0,1-1.17,1.176h-11.65q-3.87-.112-5.77-0.28a1.114,1.114,0,0,0-.78.14,0.609,0.609,0,0,0-.28.532,2.947,2.947,0,0,0,.22.672l0.23,0.448a1.255,1.255,0,0,0,1.17.728h0.28a58.077,58.077,0,0,1,7.39-.616h9.19a1.061,1.061,0,0,1,1.17,1.176v12.376a1.061,1.061,0,0,1-1.17,1.176H4355.2c-2.57-.075-4.5-0.168-5.76-0.28a1.143,1.143,0,0,0-.79.14,0.609,0.609,0,0,0-.28.532,1.521,1.521,0,0,0,.17.672l0.22,0.448a1.159,1.159,0,0,0,1.12.728h0.34a60.237,60.237,0,0,1,7.39-.616h8.85a1.251,1.251,0,0,1,.73.2,0.633,0.633,0,0,1,.28.532,1.044,1.044,0,0,1-.23.672,54.109,54.109,0,0,1-8.06,10.248,61.182,61.182,0,0,1-10.58,8.568,1.381,1.381,0,0,0-.79.84,0.31,0.31,0,0,0,.06.224,0.445,0.445,0,0,0,.45.224,2.229,2.229,0,0,0,.84-0.28,62.368,62.368,0,0,0,11.17-7.14,52.19,52.19,0,0,0,8.87-9.044,1.069,1.069,0,0,1,.84-0.56c0.38,0,.56.336,0.56,1.008v4.7c-0.03,2.912-.1,5.329-0.19,7.252s-0.22,3.873-.37,5.852a0.991,0.991,0,0,0,.4.784,1.331,1.331,0,0,0,.89.336,3.753,3.753,0,0,0,1.54-.336,5,5,0,0,0,1.32-.84,1.452,1.452,0,0,0,.45-1.064V660.6q-0.285-6.329-.4-12.376V642.4c0-.672.19-1.008,0.56-1.008a0.977,0.977,0,0,1,.79.672,43.275,43.275,0,0,0,7.73,9.968,42.472,42.472,0,0,0,9.85,7.168,1.418,1.418,0,0,0,.62.168,1.1,1.1,0,0,0,.89-0.728,3.806,3.806,0,0,1,1.85-1.736c0.15-.075.34-0.159,0.56-0.252a0.593,0.593,0,0,0,.39-0.308,1.531,1.531,0,0,0-.95-0.616,48.039,48.039,0,0,1-11.31-6.384,43.191,43.191,0,0,1-9.18-9.128,1.465,1.465,0,0,1-.28-0.728c0-.485.35-0.728,1.06-0.728h18.7a1.989,1.989,0,0,0,1.07-.28,0.835,0.835,0,0,0,.28-0.56,1.284,1.284,0,0,0-.28-0.672,15.561,15.561,0,0,0-2.41-2.324,5.848,5.848,0,0,0-2.13-1.372,0.679,0.679,0,0,0-.47.252,6.763,6.763,0,0,0-.65.784c-0.26.355-.45,0.607-0.56,0.756l-0.78,1.064a1.623,1.623,0,0,1-1.4.728h0Zm-4.93-12.768a38.249,38.249,0,0,1-1.76,4.984,42.282,42.282,0,0,1-2.33,4.7l-0.39.728a0.956,0.956,0,0,0-.22.616,0.48,0.48,0,0,0,.16.336c0.23,0.187.6,0.056,1.12-.392a46.3,46.3,0,0,0,7.06-7.84,2.389,2.389,0,0,1,1.29-.9l0.17-.056a0.645,0.645,0,0,0,.61-0.448c0-.3-0.5-0.635-1.51-1.008-0.37-.149-0.82-0.355-1.34-0.616l-1.35-.784a0.965,0.965,0,0,0-.61-0.224,1.011,1.011,0,0,0-.9.9h0Zm-25.7.5a30.851,30.851,0,0,1,2.46,4.564,16.766,16.766,0,0,1,1.34,4.564,1.719,1.719,0,0,0,.79,1.288,2.088,2.088,0,0,0,.95.224,1.6,1.6,0,0,0,1.37-.756,3.242,3.242,0,0,0,.53-1.932,7.85,7.85,0,0,0-1.62-4.368,15.981,15.981,0,0,0-5.1-4.424,1.741,1.741,0,0,0-.89-0.392,0.225,0.225,0,0,0-.28.224,3.039,3.039,0,0,0,.45,1.008h0Z" transform="translate(-4346.84 -277.062)"/>
  <path id="_" data-name="”" class="cls-1" d="M4383.7,401.428l0.23-.056a10.658,10.658,0,0,0,3.55-3.108,7.54,7.54,0,0,0,1.54-4.676,3.135,3.135,0,0,0-.92-2.324,3.018,3.018,0,0,0-2.21-.924,2.894,2.894,0,0,0-2.16.9,3.02,3.02,0,0,0-.87,2.184,2.458,2.458,0,0,0,.54,1.68,4.5,4.5,0,0,0,1.42,1.064,1.225,1.225,0,0,1,.79,1.232q0,1.569-2.07,3.416a0.369,0.369,0,0,0-.12.28,0.354,0.354,0,0,0,.09.224,0.228,0.228,0,0,0,.19.112h0Zm9.3,0,0.22-.056a10.688,10.688,0,0,0,3.56-3.108,7.54,7.54,0,0,0,1.54-4.676,3.174,3.174,0,0,0-.92-2.324,3.04,3.04,0,0,0-2.22-.924,2.888,2.888,0,0,0-2.15.9,3.02,3.02,0,0,0-.87,2.184,2.505,2.505,0,0,0,.53,1.68,4.543,4.543,0,0,0,1.43,1.064,1.23,1.23,0,0,1,.78,1.232q0,1.569-2.07,3.416a0.384,0.384,0,0,0-.03.5,0.257,0.257,0,0,0,.2.112h0Z" transform="translate(-4346.84 -277.062)"/>
  <path id="_2" data-name="“" class="cls-1" d="M4349.97,690.372a2.887,2.887,0,0,0,2.16-.9,3.013,3.013,0,0,0,.87-2.184,2.465,2.465,0,0,0-.54-1.68,4.556,4.556,0,0,0-1.42-1.064,1.223,1.223,0,0,1-.79-1.232q0-1.566,2.07-3.416a0.366,0.366,0,0,0,.12-0.28,0.362,0.362,0,0,0-.09-0.224,0.232,0.232,0,0,0-.19-0.112l-0.23.056a10.7,10.7,0,0,0-3.55,3.108,7.548,7.548,0,0,0-1.54,4.676,3.132,3.132,0,0,0,.92,2.324,3.018,3.018,0,0,0,2.21.924h0Zm9.3,0a2.849,2.849,0,0,0,2.15-.9,3.013,3.013,0,0,0,.87-2.184,2.513,2.513,0,0,0-.53-1.68,4.49,4.49,0,0,0-1.43-1.064,1.228,1.228,0,0,1-.78-1.232q0-1.566,2.07-3.416a0.4,0.4,0,0,0,.11-0.28,0.414,0.414,0,0,0-.08-0.224,0.249,0.249,0,0,0-.2-0.112l-0.22.056a10.733,10.733,0,0,0-3.56,3.108,7.61,7.61,0,0,0-1.54,4.676,3.14,3.14,0,0,0,.93,2.324,3,3,0,0,0,2.21.924h0Z" transform="translate(-4346.84 -277.062)"/>
  <path id="の" class="cls-1" d="M4454.3,537.056a13.941,13.941,0,0,0-6.24,1.472,12.268,12.268,0,0,0-4.8,4.176,10.8,10.8,0,0,0-1.82,6.16,12.8,12.8,0,0,0,.59,3.872,8.164,8.164,0,0,0,1.6,2.992,2.889,2.889,0,0,0,2.16,1.136,3.618,3.618,0,0,0,2.03-1.072,14.716,14.716,0,0,0,2.63-3.168,25.239,25.239,0,0,0,2.41-4.944,15.717,15.717,0,0,0,1.15-5.44,10.431,10.431,0,0,0-.14-1.664,11.979,11.979,0,0,0-.4-1.728,0.526,0.526,0,0,1,.08-0.448,1.021,1.021,0,0,1,.4-0.352,11.247,11.247,0,0,1,4.67,1.008,8.629,8.629,0,0,1,3.7,3.2,9.9,9.9,0,0,1,1.45,5.584,9.249,9.249,0,0,1-3.42,7.68,19.459,19.459,0,0,1-8.9,3.68,2.043,2.043,0,0,0-1.28.416c0,0.106.15,0.16,0.45,0.16a27.256,27.256,0,0,0,5.81-.784,15.135,15.135,0,0,0,6.53-3.408c2.04-1.749,3.05-4.288,3.05-7.616a10.107,10.107,0,0,0-1.84-6.256,10.621,10.621,0,0,0-4.52-3.552,14.043,14.043,0,0,0-5.35-1.1h0Zm-1.31,3.584a15.361,15.361,0,0,1-.75,4.688,21.942,21.942,0,0,1-2.55,5.136,17.657,17.657,0,0,1-2.03,2.672,2.954,2.954,0,0,1-1.9,1.2,1.541,1.541,0,0,1-.93-0.608,5.548,5.548,0,0,1-1.04-1.888,9.474,9.474,0,0,1-.46-3.2,10.251,10.251,0,0,1,1.18-4.928,10.419,10.419,0,0,1,3.17-3.616,10.924,10.924,0,0,1,4.35-1.856,0.6,0.6,0,0,1,.77.512,8.863,8.863,0,0,1,.19,1.888h0Z" transform="translate(-4346.84 -277.062)"/>
  <path id="わたし" class="cls-1" d="M4459.51,359.193q-5.655,0-11.87,3.976c-0.98.672-1.7,1.195-2.19,1.568l-0.28.28,2.02-3.36a6.93,6.93,0,0,0,.92-1.624,4.34,4.34,0,0,0,.37-1.568,1.348,1.348,0,0,0-.56-1.176,3.251,3.251,0,0,0-1.74-.784,1.815,1.815,0,0,0-1.01.392l-0.11.112a1.856,1.856,0,0,1,.03-0.728c0.05-.373.14-0.821,0.25-1.344l0.34-1.568a9.7,9.7,0,0,1,.89-2.408,7.335,7.335,0,0,0,.48-1.2,4.51,4.51,0,0,0,.19-1.316q0-2.407-3.19-3.976a5.992,5.992,0,0,0-2.35-.784c-0.34,0-.5.093-0.5,0.28a0.934,0.934,0,0,0,.36.5c0.24,0.224.42,0.392,0.53,0.5a6.069,6.069,0,0,1,1.63,4.48,31.5,31.5,0,0,1-.45,4.424q-0.285,1.9-.51,4.424a2.416,2.416,0,0,1-.72,1.4,23.684,23.684,0,0,1-2.86,2.016,6.325,6.325,0,0,1-1.54.644,7.587,7.587,0,0,1-1.88.2l-1.06-.056a3.007,3.007,0,0,0-1.04.2,0.748,0.748,0,0,0-.53.756,2.935,2.935,0,0,0,1.07,1.68c0.74,0.784,1.81,3.1,3.19,6.944a3.349,3.349,0,0,1,.11.672,1.43,1.43,0,0,1-.39.952q-2.415,2.8-3.42,4.144a6.3,6.3,0,0,0-1.23,2.52,2.747,2.747,0,0,0-.11.672,1.753,1.753,0,0,0,.42,1.2,1.318,1.318,0,0,0,1.03.476c0.86,0,1.63-.672,2.3-2.016l1.57-3.024a0.939,0.939,0,0,1,.78-0.616,0.909,0.909,0,0,1,.84.84q1.4,5.04,1.91,8.064a3.38,3.38,0,0,0,.84,1.82,1.937,1.937,0,0,0,1.45.644,1.221,1.221,0,0,0,1.04-.672,3.6,3.6,0,0,0,.42-1.9,8.042,8.042,0,0,0-.23-1.848,60.631,60.631,0,0,1-1-11.648l0.05-3.192a2.318,2.318,0,0,1,.62-1.456,24.04,24.04,0,0,1,6.97-4.928,17.376,17.376,0,0,1,7.25-1.736,10.678,10.678,0,0,1,4.9,1.12,8.562,8.562,0,0,1,4.79,7.9,14.742,14.742,0,0,1-2.3,7.672,22.7,22.7,0,0,1-6.3,6.692,25.806,25.806,0,0,1-8.93,4.116,0.741,0.741,0,0,0-.73.5c0,0.187.21,0.28,0.62,0.28a7.165,7.165,0,0,0,1.18-.168,33.286,33.286,0,0,0,9.66-3.36,24.2,24.2,0,0,0,7.7-6.244,13.115,13.115,0,0,0,3.02-8.372,11.862,11.862,0,0,0-1.6-6.1,11.25,11.25,0,0,0-4.48-4.312,13.648,13.648,0,0,0-6.63-1.568h0Zm-23.52,6.1a2.631,2.631,0,0,0,.61.056,6.309,6.309,0,0,0,1.74-.224,3.528,3.528,0,0,0,1.15-.56,12.5,12.5,0,0,0,1.31-1.176,1.1,1.1,0,0,1,.73-0.392,0.587,0.587,0,0,1,.48.252,1.118,1.118,0,0,1,.19.7v0.112l-0.11,1.568a4.253,4.253,0,0,1-.39,1.4,19.354,19.354,0,0,1-2.24,3.7l-0.56.728a0.385,0.385,0,0,1-.59.112,1.616,1.616,0,0,1-.59-0.9l-1.62-3.976a2.715,2.715,0,0,1-.34-1.12,0.229,0.229,0,0,1,.23-0.28h0Zm5.49,12.712a1.526,1.526,0,0,1-.12.952,0.507,0.507,0,0,1-.28-0.28,27.929,27.929,0,0,1-1.4-3.192,2.2,2.2,0,0,1-.16-0.728,2.118,2.118,0,0,1,.28-0.9l1.23-2.072a2.062,2.062,0,0,1,.39-0.56c0.07-.075.13,0.047,0.17,0.364s0.05,0.681.05,1.092v0.616Zm7.28,40.6a17.147,17.147,0,0,1-2.13-.784,9.487,9.487,0,0,1-1.74-1.232,2.084,2.084,0,0,1-.5-1.512,2.6,2.6,0,0,0-.62-1.9,7.194,7.194,0,0,0-1.85-1.232,8.577,8.577,0,0,0-1.7-.56,7.609,7.609,0,0,0-1.6-.224c-0.49,0-.73.112-0.73,0.336a0.754,0.754,0,0,0,.45.56,7.287,7.287,0,0,1,2.04,1.82,4.847,4.847,0,0,1,.48,2.492,14.946,14.946,0,0,1-.11,1.736l-0.56,4.256a1.557,1.557,0,0,1-1.01,1.232,27.627,27.627,0,0,1-2.69.9,11.831,11.831,0,0,1-3.41.56,7.976,7.976,0,0,1-3.14-.616,2.111,2.111,0,0,0-.84-0.28,0.3,0.3,0,0,0-.34.336,1.05,1.05,0,0,0,.4.672c1.82,1.792,3.6,2.688,5.32,2.688a15.073,15.073,0,0,0,3.41-.448,1.384,1.384,0,0,1,.95.084,0.733,0.733,0,0,1,.34.7l-0.06.336a94.628,94.628,0,0,1-6.88,21.9,3.858,3.858,0,0,0-.45,1.736,2.318,2.318,0,0,0,.67,1.764,2.2,2.2,0,0,0,1.57.644,1.617,1.617,0,0,0,1.29-.756,10.094,10.094,0,0,0,1.17-2.6q0.735-2.3,5.49-24.36a1.557,1.557,0,0,1,1.01-1.232,38.348,38.348,0,0,0,6.38-3.752,2.38,2.38,0,0,0,1.18-1.736,1,1,0,0,0-.42-0.9,6.682,6.682,0,0,0-1.37-.616h0Zm-5.27,1.232,0.23-1.176a0.731,0.731,0,0,1,.72-0.672,1.139,1.139,0,0,1,.96.616,1.823,1.823,0,0,1,.39,1.008,2.369,2.369,0,0,1-1.12,1.288,0.92,0.92,0,0,1-.56.224,0.587,0.587,0,0,1-.48-0.252,1.02,1.02,0,0,1-.19-0.644,1.178,1.178,0,0,1,.05-0.392h0Zm25.87,2.856a8.239,8.239,0,0,0-2.6-1.176,12.647,12.647,0,0,0-3.44-.448,12.246,12.246,0,0,0-4.2.728,0.883,0.883,0,0,0-.73.672q0,0.448.78,0.448,0.06,0,.51-0.084a6.147,6.147,0,0,1,1.12-.084,8.685,8.685,0,0,1,2.4.392,8.3,8.3,0,0,1,2.58,1.288,1.5,1.5,0,0,1,.78,1.12c0,0.672-1.02,1.755-3.08,3.248-0.82.635-1.32,1.045-1.51,1.232a0.983,0.983,0,0,0-.28.616,0.225,0.225,0,0,0,.28.224,1.4,1.4,0,0,0,.67-0.224,9.436,9.436,0,0,1,1.52-.9,14.159,14.159,0,0,1,1.84-.784,14.806,14.806,0,0,1,2.02-.448,14.409,14.409,0,0,0,1.57-.28c1.45-.336,2.18-0.877,2.18-1.624a4.3,4.3,0,0,0-.64-1.96,5.714,5.714,0,0,0-1.77-1.96h0Zm-1.9,27.664c-0.3,0-.67.019-1.12,0.056s-0.93.075-1.46,0.112c-1.56.149-2.55,0.224-2.96,0.224a14.716,14.716,0,0,1-4.46-.616,7.731,7.731,0,0,1-2.94-1.568,5.859,5.859,0,0,1-1.68-2.464,7.782,7.782,0,0,1-.44-2.464,6.071,6.071,0,0,1,.05-0.9l0.11-1.008c0-.261-0.07-0.392-0.22-0.392a0.753,0.753,0,0,0-.56.448,7.156,7.156,0,0,0-.87,2.24,9.233,9.233,0,0,0-.19,1.96,7.178,7.178,0,0,0,3.8,6.8,20.066,20.066,0,0,0,9.75,2.1,16.113,16.113,0,0,0,4.51-.5,1.979,1.979,0,0,0,1.65-1.96,2.1,2.1,0,0,0-.11-0.616,1.838,1.838,0,0,0-.73-1.064,4.2,4.2,0,0,0-2.13-.392h0Zm-16.3,70.056a19.248,19.248,0,0,0,9.94-2.912,49.927,49.927,0,0,0,9.72-7.728,2.053,2.053,0,0,0,.73-1.12,0.18,0.18,0,0,0-.17-0.224,1.33,1.33,0,0,0-.64.28,5.683,5.683,0,0,1-.54.336q-11.085,8.12-17.8,8.12a12.155,12.155,0,0,1-5.83-1.148,6.384,6.384,0,0,1-2.94-3.752,24.3,24.3,0,0,1-.87-7.364,107.82,107.82,0,0,1,.9-12.6q0.78-6.552.78-8.4a7.819,7.819,0,0,0-1.09-4.424c-0.73-1.083-2.06-1.624-4-1.624-1.05,0-1.57.2-1.57,0.616a0.771,0.771,0,0,0,.45.616,4.035,4.035,0,0,1,1.87,2.436,17.352,17.352,0,0,1,.42,4.34q0,1.512-.44,6.216a124.373,124.373,0,0,0-.73,12.488,31.078,31.078,0,0,0,1.03,8.764,9.544,9.544,0,0,0,3.64,5.264,12.306,12.306,0,0,0,7.14,1.82h0Z" transform="translate(-4346.84 -277.062)"/>
</svg>
