<?xml version="1.0" encoding="UTF-8"?>
<svg id="_もじ" data-name="もじ" xmlns="http://www.w3.org/2000/svg" viewBox="0 0 211.33 41.37">
  <defs>
    <style>
      .cls-1 {
        fill: #b79433;
      }

      .cls-2 {
        fill: #231815;
      }
    </style>
  </defs>
  <path class="cls-1" d="m5.23,10.3c.14-.21.5-1.45-.54-2.35l-1.04-.9s-.59,1.15-.09,2.04c.5.88,1.68,1.22,1.68,1.22Zm8.98,27.77c.28-1.24-.99-2.67-.99-2.67l-.99,1.35c-.65.9-.43,1.89-.13,2.53-.67-.68-1.3-1.41-1.91-2.19.44-.2,1.24-.65,1.56-1.44.45-1.12-.53-2.57-.53-2.57l-1.13,1.16c-.59.61-.68,1.32-.6,1.9-1.19-1.7-2.22-3.59-3.04-5.6.41-.11,1.55-.47,2.05-1.3.63-1.03-.23-2.49-.23-2.49l-1.37,1.01c-.67.5-.88,1.13-.89,1.66-.32-.87-.6-1.75-.84-2.65.32-.04,1.46-.24,2.12-1.01.77-.91.33-2.38.33-2.38l-1.4.81c-.93.54-1.18,1.39-1.2,1.98-.22-.9-.4-1.81-.54-2.73.33-.02,1.45-.14,2.16-.83.84-.82.58-2.28.58-2.28l-1.45.68c-.95.44-1.28,1.23-1.37,1.79-.06-.51-.11-1.02-.15-1.52-.03-.44-.05-.88-.06-1.32.44,0,1.33-.06,2.01-.56.93-.68.92-2.06.92-2.06l-1.49.49c-.77.25-1.2.74-1.44,1.19.01-.75.06-1.49.13-2.22.41.03,1.36.05,2.13-.41,1.01-.61,1.14-1.98,1.14-1.98l-1.54.38c-.86.21-1.36.72-1.64,1.18.1-.79.25-1.57.42-2.34.39.06,1.32.13,2.11-.28,1.03-.53,1.28-1.85,1.28-1.85l-1.53.29c-.83.15-1.35.6-1.67,1.01.19-.73.41-1.44.65-2.13.42.11,1.14.23,1.85.02,1.1-.33,1.67-1.49,1.67-1.49l-1.51.02c-.73,0-1.29.27-1.69.56.22-.56.46-1.11.72-1.64.4.09.99.16,1.58-.01,1.03-.3,1.58-1.39,1.58-1.39h-1.41c-.46.02-.85.13-1.16.28.34-.61.69-1.19,1.07-1.75.35.15.96.34,1.63.24,1.03-.15,1.76-1.09,1.76-1.09l-1.33-.17c-.61-.08-1.12.06-1.52.25.46-.61.94-1.19,1.44-1.72.27.12.82.32,1.43.24.86-.12,1.46-.9,1.46-.9l-1.1-.14c-.45-.06-.85.03-1.16.16.14-.14.29-.27.43-.4v-.02c.41,0,1.52-.13,2.02-.88L14.01,0s-1.32-.1-2.03.41c-.45.32-.6.76-.65,1.04-.28.24-.55.49-.82.75.12-.35.15-.84-.22-1.3l-.6-.76s-.63.76-.42,1.45c.16.51.65.85.88.98-.6.62-1.18,1.3-1.72,2.03.18-.41.29-1.03-.13-1.63l-.66-.95s-.83.88-.63,1.71c.18.75.95,1.22,1.1,1.3-.42.6-.82,1.24-1.2,1.9.05-.39-.01-.86-.37-1.3l-.78-.97s-.8.98-.52,1.85c.21.65.83,1.08,1.14,1.25-.08.1-.13.19-.15.23,0,0,.04.01.1.04-.68,1.36-1.25,2.83-1.69,4.36-.15-.49-.5-1.08-1.24-1.48l-1.35-.72s-.21,1.32.58,2.13c.56.57,1.36.79,1.79.87-.24.93-.42,1.89-.55,2.86-.15-.54-.58-1.34-1.6-1.78l-1.48-.62s-.03,1.38.89,2.14c.74.62,1.76.73,2.12.76-.11.91-.16,1.83-.17,2.76-.29-.52-.9-1.26-2.02-1.53l-1.61-.39s.32,1.39,1.41,2.01c.84.48,1.81.46,2.22.43,0,.38.01.76.03,1.14.03.53.07,1.07.13,1.6-.29-.53-.85-1.17-1.83-1.48l-1.64-.52s.18,1.46,1.26,2.18c.85.57,1.9.6,2.3.59.11.8.26,1.6.44,2.39-.43-.45-1.1-.91-2.04-1.05l-1.76-.27s.54,1.46,1.8,2.03c.85.38,1.74.34,2.24.28.24.94.53,1.86.86,2.77-.48-.49-1.24-1.04-2.34-1.24l-2.01-.38s.58,1.53,2,2.18c1.06.49,2.2.45,2.71.4.35.88.73,1.73,1.15,2.56-.61-.39-1.51-.75-2.56-.68l-1.88.13s1.1,1.39,2.59,1.68c.98.19,1.85-.05,2.33-.23.53.98,1.11,1.91,1.73,2.78-.64-.39-1.88-.92-3.24-.63l-1.81.4s1.39,1.23,2.9,1.31c1.2.06,2.11-.46,2.44-.68.46.63.94,1.23,1.44,1.8-.64-.15-1.4-.2-2.16.01l-1.88.52s1.58,1.23,3.19,1.23c.86,0,1.56-.28,2.02-.54.46.45.93.86,1.41,1.24l.58-.37c-.46-.36-.9-.74-1.33-1.15.38-.21,1.3-.8,1.53-1.78Zm-5.9-7.06c-1.11,1.17-.37,2.72-.15,2.98,0,0,1.41-.46,1.84-1.59.43-1.12-.58-2.56-.58-2.56l-1.11,1.17Z"/>
  <path class="cls-1" d="m207.78,9.08c.5-.88-.09-2.04-.09-2.04l-1.04.9c-1.04.91-.68,2.14-.54,2.35,0,0,1.18-.34,1.68-1.22Zm-9.13,30.77c-.43.41-.88.79-1.33,1.15l.58.37c.48-.38.95-.8,1.41-1.24.46.26,1.16.54,2.02.54,1.61,0,3.19-1.23,3.19-1.23l-1.88-.52c-.77-.21-1.52-.16-2.16-.01.5-.57.98-1.16,1.44-1.8.32.22,1.23.75,2.44.68,1.51-.08,2.9-1.31,2.9-1.31l-1.81-.4c-1.36-.3-2.61.24-3.24.63.62-.88,1.19-1.81,1.73-2.78.48.18,1.35.42,2.33.23,1.48-.29,2.59-1.68,2.59-1.68l-1.88-.13c-1.06-.08-1.95.29-2.56.68.42-.83.8-1.69,1.15-2.56.51.05,1.65.09,2.71-.4,1.42-.65,2-2.18,2-2.18l-2.01.38c-1.1.21-1.86.75-2.34,1.24.33-.91.61-1.83.86-2.77.49.06,1.39.1,2.24-.28,1.26-.56,1.8-2.03,1.8-2.03l-1.76.27c-.93.14-1.6.61-2.04,1.05.18-.79.33-1.59.44-2.39.4,0,1.45-.03,2.3-.59,1.08-.72,1.26-2.18,1.26-2.18l-1.64.52c-.98.31-1.54.96-1.83,1.48.06-.53.11-1.07.13-1.6.02-.38.03-.76.03-1.14.4.03,1.37.05,2.22-.43,1.1-.62,1.41-2.01,1.41-2.01l-1.61.39c-1.12.28-1.74,1.02-2.02,1.53,0-.93-.07-1.86-.17-2.76.36-.02,1.38-.14,2.12-.76.92-.76.89-2.14.89-2.14l-1.48.62c-1.02.43-1.45,1.24-1.6,1.78-.13-.97-.32-1.93-.55-2.86.43-.08,1.24-.3,1.79-.87.79-.81.58-2.13.58-2.13l-1.35.72c-.74.4-1.09.99-1.24,1.48-.44-1.54-1.01-3-1.69-4.36.06-.02.1-.04.1-.04-.02-.05-.07-.13-.15-.23.3-.17.93-.6,1.14-1.25.27-.87-.52-1.85-.52-1.85l-.78.97c-.36.44-.42.91-.37,1.3-.37-.66-.77-1.3-1.2-1.9.15-.08.93-.55,1.1-1.3.2-.83-.63-1.71-.63-1.71l-.66.95c-.42.6-.31,1.21-.13,1.63-.54-.73-1.12-1.41-1.72-2.03.24-.14.72-.47.88-.98.21-.68-.42-1.45-.42-1.45l-.6.76c-.37.46-.33.96-.22,1.3-.27-.26-.54-.51-.82-.75-.05-.28-.2-.72-.65-1.04-.71-.51-2.03-.41-2.03-.41l.56.85c.5.76,1.61.89,2.02.88v.02c.14.13.29.27.43.4-.32-.13-.71-.21-1.16-.16l-1.1.14s.61.78,1.46.9c.62.09,1.16-.12,1.43-.24.5.54.99,1.11,1.44,1.72-.4-.19-.92-.32-1.52-.25l-1.33.17s.73.94,1.76,1.09c.67.09,1.29-.1,1.63-.24.38.56.74,1.14,1.07,1.75-.32-.15-.71-.26-1.16-.27h-1.41s.54,1.07,1.58,1.37c.59.17,1.18.1,1.58.01.26.53.5,1.08.72,1.64-.4-.29-.96-.55-1.69-.56l-1.51-.02s.57,1.16,1.67,1.49c.72.21,1.44.09,1.85-.02.24.69.46,1.4.65,2.13-.31-.42-.84-.86-1.67-1.01l-1.53-.29s.25,1.31,1.28,1.85c.79.41,1.73.34,2.11.28.17.76.31,1.54.42,2.34-.28-.46-.78-.97-1.64-1.18l-1.54-.38s.14,1.37,1.14,1.98c.77.46,1.72.44,2.13.41.07.73.12,1.47.13,2.22-.24-.45-.68-.93-1.44-1.19l-1.49-.49s-.01,1.38.92,2.06c.68.49,1.57.56,2.01.56,0,.44-.03.88-.06,1.32-.04.51-.09,1.02-.15,1.52-.1-.57-.43-1.35-1.37-1.79l-1.45-.68s-.27,1.45.58,2.28c.72.7,1.84.81,2.16.83-.14.92-.32,1.82-.54,2.73-.02-.59-.27-1.44-1.2-1.98l-1.4-.81s-.44,1.48.33,2.38c.65.77,1.79.97,2.12,1.01-.24.9-.52,1.78-.84,2.65-.01-.54-.22-1.16-.89-1.66l-1.37-1.01s-.86,1.45-.23,2.49c.51.83,1.64,1.19,2.05,1.3-.83,2.01-1.86,3.9-3.04,5.6.08-.58,0-1.3-.6-1.9l-1.13-1.16s-.98,1.45-.53,2.57c.32.79,1.12,1.24,1.56,1.44-.6.78-1.24,1.52-1.91,2.19.3-.64.53-1.64-.13-2.53l-.99-1.35s-1.27,1.43-.99,2.67c.22.98,1.15,1.57,1.53,1.78Zm3.27-10.01s-1.01,1.44-.58,2.56c.43,1.13,1.84,1.59,1.84,1.59.22-.26.96-1.8-.15-2.98l-1.11-1.17Z"/>
  <g>
    <path class="cls-2" d="m27.35,11.47c-.07.2-.21.32-.65.32-.41,1.24-.89,2.45-1.41,3.6l.67.26c-.05.15-.21.27-.51.31v10.41c-.02.08-.56.39-1.06.39h-.24v-9.22c-.56.92-1.16,1.76-1.79,2.44l-.26-.15c1.23-2.03,2.51-5.59,3.24-8.91l2.01.56Zm7.38,10.11l1.31,1.19c-.12.14-.31.19-.73.21-.56.7-1.29,1.28-2.13,1.76,1.35.38,3,.56,5.01.61l-.03.2c-.51.19-.83.58-.9,1.23-2.32-.26-3.95-.7-5.25-1.45-1.69.73-3.73,1.18-6,1.45l-.07-.29c1.98-.36,3.78-.92,5.27-1.7-.58-.44-1.09-.97-1.55-1.6-.9.7-1.99,1.36-3.15,1.79l-.17-.21c1.46-.85,2.91-2.44,3.58-3.65l.17.03c-.22-.17-.27-.48-.27-.99v-1.21l1.52.14c-.03.19-.14.25-.49.29v.8c0,.31.02.31.43.31h1.89c.43,0,.48-.09.9-.8h.15l.03.72c.41.15.49.19.49.36,0,.41-.44.6-1.58.6h-2.15l.87.19c-.05.19-.27.29-.73.29l-.48.49h3.22l.85-.75Zm-7.47-9.19l-.1-.39h8.18l.85-1.07,1.64,1.12c-.12.24-.34.34-.8.34h-4.24c-.32.43-.7.92-1.04,1.29h2.47l.56-.73,1.58,1.11c-.1.12-.36.26-.65.31v3.43h.31l.77-.77,1.36,1.33c-.12.12-.31.15-.65.17-.34.27-.92.68-1.38.99.78.41,1.07.94,1.07,1.35,0,.38-.24.65-.58.65-.12,0-.27-.05-.43-.15-.34-.77-1.26-1.72-2.1-2.22l.1-.17c.58.09,1.06.21,1.45.34.14-.34.31-.78.43-1.14h-8.04c-.03,1.31-.82,1.88-1.43,1.88-.41,0-.63-.24-.63-.53,0-.26.2-.51.48-.67.56-.26,1.14-.95,1.16-1.72h.29c.07.24.1.46.12.66h.43v-4.72l1.53.61h1.11c.07-.41.14-.9.17-1.29h-3.99Zm1.86,6.6c.05.22.07.43.07.61,0,1.31-.96,1.94-1.62,1.94-.48,0-.58-.27-.58-.44,0-.24.21-.46.46-.58.6-.19,1.3-.78,1.36-1.53h.31Zm5.25-4.91h-4.62v.97h4.62v-.97Zm0,2.33v-.99h-4.62v.99h4.62Zm-4.62,1.38h4.62v-.99h-4.62v.99Zm.49,4.91l-.31.25c.54.56,1.23,1.01,2.03,1.36.72-.48,1.33-1.01,1.82-1.62h-3.54Zm.72-4.31c1.72-.02,2.3.61,2.3,1.09,0,.27-.2.48-.48.48-.08,0-.2-.02-.31-.09-.31-.48-1.01-1.02-1.58-1.29l.07-.19Z"/>
    <path class="cls-2" d="m46.89,19.72c.46,1.21,1.16,2.18,2.03,2.98,1.33-.87,2.86-2.06,3.7-2.86l1.58,1.18c-.07.1-.15.17-.29.17-.1,0-.21-.03-.36-.08-1.04.6-2.74,1.33-4.29,1.88,1.53,1.24,3.58,1.98,5.95,2.39l-.03.21c-.61.1-1.04.56-1.23,1.24-3.85-1.11-6.29-3.08-7.4-7.09h-2.92v5.01c1.6-.14,3.49-.29,5.45-.48l.03.27c-1.72.48-4.18,1.06-7.74,1.82-.1.2-.27.34-.43.38l-.95-1.76c.54-.02,1.31-.07,2.23-.14v-12.12l1.6.67h2.64v-2.51l2.06.19c-.02.24-.17.34-.67.41v1.91h2.68l.61-.8,1.67,1.21c-.12.14-.38.27-.72.34v5.85s-.39.44-1.4.44v-.7h-3.83Zm3.83-5.96h-7.09v2.59h7.09v-2.59Zm-7.09,2.97v2.62h7.09v-2.62h-7.09Z"/>
    <path class="cls-2" d="m70.85,19.86l1.58,1.24c-.14.22-.34.34-.82.34h-1.93v2.92s-.39.43-1.36.43v-1.23h-3.46v1.33c0,.99-.29,1.72-2.2,1.91,0-1-.75-1.14-2.22-1.26v-.27h2.59c.34,0,.43-.1.43-.38v-1.33h-5.17l-.12-.38h5.28v-1.74h-7.21l-.08-.39h7.29v-1.71h-5.04l-.12-.38h5.17v-1.52h-3.1v.34s-.24.48-1.38.48v-4.28l1.48.63h3v-1.45h-6.97l-.12-.38h7.09v-1.91l2.15.19c-.02.25-.12.38-.75.46v1.26h4.45l.94-1.16,1.76,1.21c-.14.24-.32.32-.82.32h-6.32v1.45h2.98l.6-.77,1.67,1.16c-.12.14-.38.27-.7.34v2.2s-.38.43-1.4.43v-.53h-3.15v1.52h3.29l.58-.78,1.65,1.18c-.1.14-.36.27-.7.34v1.35h.29l.87-1.19Zm-10.48-2.78h3.1v-2.08h-3.1v2.08Zm7.65-2.08h-3.15v2.08h3.15v-2.08Zm-3.15,4.35v1.71h3.46v-1.71h-3.46Zm3.46,3.83v-1.74h-3.46v1.74h3.46Z"/>
    <path class="cls-2" d="m89.09,21.77c-.14.24-.32.32-.8.32h-5.83c1.6,1.43,4.43,2.54,6.8,3.02l-.02.19c-.53.08-.94.51-1.09,1.14-2.42-.82-4.79-2.37-6.17-4.35h-.07v4.31c-.02.08-.44.38-1.16.38h-.22v-4.09c-1.76,1.65-4.31,2.93-7.12,3.75l-.15-.31c2.39-.97,4.58-2.47,6.02-4.04h-5.71l-.1-.38h7.07v-1.86h-5.2l-.1-.38h5.3v-1.77h-6.05l-.1-.38h4.38v-.02c-.15-.02-.32-.08-.48-.25-.05-.77-.56-1.77-1.12-2.33l.15-.12c1.69.53,2.23,1.31,2.23,1.91,0,.43-.29.75-.63.8v.02h3.92c.46-.8.96-1.93,1.24-2.74l1.84.67c-.07.12-.19.2-.39.2-.08,0-.17-.02-.26-.03-.48.6-1.21,1.33-1.94,1.91h2.56l.84-1.04,1.57,1.07c-.14.24-.32.34-.8.34h-5.57v1.77h3.36l.77-.97,1.5,1.02c-.14.24-.32.32-.78.32h-4.84v1.86h4.7l.87-1.07,1.6,1.12Zm-15.48-7.19l-.1-.38h3.67c-.12-.03-.26-.1-.39-.24-.1-.83-.75-1.91-1.43-2.49l.14-.15c1.89.53,2.49,1.43,2.49,2.1,0,.39-.22.72-.53.78h1.53v-3.34l1.94.19c-.02.2-.17.32-.65.39v2.76h1.91v-3.34l1.99.19c-.03.22-.19.32-.68.41v2.74h.67c.56-.82,1.21-1.99,1.6-2.88l1.81.77c-.07.12-.17.17-.36.17-.09,0-.19,0-.31-.03-.55.63-1.42,1.38-2.25,1.98h2.01l.83-1.02,1.59,1.07c-.14.24-.32.32-.8.32h-14.67Z"/>
    <path class="cls-2" d="m98.7,18.7c.51,1.3,1.23,2.42,2.13,3.38,1.02-.8,2.11-1.89,2.66-2.64l1.76,1.18c-.07.12-.17.19-.34.19-.08,0-.19-.02-.31-.05-.83.54-2.17,1.18-3.44,1.65,1.42,1.36,3.2,2.32,5.25,2.79l-.02.19c-.72.26-1.16.78-1.28,1.45-3.25-1.33-5.57-4.04-6.73-7.89-.73.83-1.62,1.58-2.66,2.25v3.46l5.21-.53.03.26c-1.65.53-4.06,1.18-7.58,2.01-.09.22-.26.34-.43.39l-.95-1.81c.56-.03,1.36-.1,2.35-.19v-2.79c-1.23.65-2.61,1.18-4.04,1.6l-.15-.29c2.61-1.11,4.96-2.81,6.39-4.6h-6.12l-.08-.38h7.28v-2.22h-5.04l-.1-.38h5.15v-2.18h-6.25l-.1-.38h6.36v-2.3l2.18.21c-.02.25-.2.38-.77.46v1.64h3.94l.85-1.14,1.6,1.18c-.14.24-.34.34-.82.34h-5.57v2.18h3.03l.8-1.09,1.53,1.12c-.14.24-.34.34-.8.34h-4.57v2.22h4.74l.87-1.16,1.6,1.19c-.14.24-.34.34-.82.34h-6.73Z"/>
    <path class="cls-2" d="m117.2,23.27c-.14.25-.32.34-.8.34h-3.66v2.83c0,.07-.43.32-1.12.32h-.22v-3.15h-3.94l-.1-.38h4.04v-1.64h-1.52v.38c0,.1-.43.41-1.09.41h-.21v-5.35l1.5.63h4.09l.58-.75,1.62,1.14c-.12.12-.38.26-.7.32v3.36s-.36.41-1.33.41v-.55h-1.6v1.64h2.15l.8-1.02,1.52,1.06Zm-9.65-7.02l-.1-.38h2.73c-.1-.05-.21-.14-.29-.27.02-.1.02-.22.02-.34,0-.65-.19-1.38-.44-1.89l.19-.08c1.16.63,1.55,1.3,1.55,1.81,0,.38-.19.67-.44.78h2.11c.22-.77.48-1.82.63-2.59h-5.54l-.1-.38h3.53v-1.99l2.11.19c-.03.26-.2.38-.77.46v1.35h1.65l.82-1.02,1.53,1.07c-.14.24-.32.32-.78.32h-2.25l1.7.46c-.07.19-.24.26-.65.24-.36.56-.92,1.29-1.47,1.89h1.48l.8-1.02,1.52,1.06c-.14.26-.34.34-.78.34h-8.76Zm6.78,1.79h-4.46v1.38h4.46v-1.38Zm-4.46,3.19h4.46v-1.43h-4.46v1.43Zm5.28,5.23c2.62-1.18,4.76-2.98,6.31-6.03l1.89.92c-.08.15-.2.22-.43.22-.07,0-.15,0-.26-.02-1.94,2.78-4.35,4.29-7.38,5.2l-.14-.29Zm7.81-9.94c-.09.14-.21.19-.41.19-.07,0-.15,0-.24-.02-1.5,1.75-3.49,3.05-5.61,3.87l-.17-.27c1.79-1.09,3.41-2.69,4.6-4.77l1.82,1.01Zm-.46-4.38c-.07.12-.17.17-.34.17-.08,0-.17,0-.29-.03-1.38,1.31-3.24,2.4-5.03,3.1l-.19-.27c1.52-.97,3-2.4,4.11-4.04l1.74,1.07Z"/>
  </g>
  <g>
    <path class="cls-1" d="m161.09,15.33l2.46,2.35c-.2.23-.51.28-1.07.31-.73.9-2.09,2.18-3.11,2.85l-.34-.2c.28-.76.65-2.23.9-3.31h-19.27c.17,2.43-1.13,3.87-2.63,3.87-.71,0-1.3-.34-1.3-1.05,0-.56.45-1.04.99-1.3,1.13-.45,2.15-1.84,2.06-3.42l.45-.03c.17.45.28.9.34,1.3h13.88c1.02-1.75,2.09-4.18,2.71-5.96l3.48,1.27c-.11.23-.31.34-.73.34-.11,0-.23,0-.37-.03-1.04,1.33-2.68,3.05-4.32,4.38h4.52l1.36-1.38Zm-4.27,4.3l2.4,2.26c-.25.25-.57.34-1.3.4-1.53,2.32-3.53,4.29-5.96,5.96,3.19,1.41,6.87,2.37,10.6,2.88l-.03.37c-1.07.2-1.84.96-2.15,2.15-3.87-.88-7.43-2.23-10.43-4.18-3.42,1.92-7.55,3.28-12.38,4.15l-.11-.45c4.24-1.07,8-2.66,11.08-4.69-2.35-1.81-4.24-4.07-5.51-6.84h-2.32l-.2-.62h14.72l1.58-1.38Zm-18.25-8.85c6.53-.65,14.86-2.2,19.22-3.48l2.35,2.32c-.14.11-.31.17-.57.17-.28,0-.65-.08-1.04-.25-5.2.82-13.06,1.64-19.87,1.78l-.08-.54Zm2.8.76c2.97,1.02,3.93,2.43,3.93,3.5,0,.85-.59,1.44-1.27,1.44-.34,0-.68-.14-.99-.51-.08-1.38-.96-3.19-1.92-4.24l.25-.2Zm2.32,10.09c1.47,2.35,3.73,4.24,6.44,5.71,2.12-1.67,3.84-3.56,5.12-5.71h-11.56Zm4.04-10.62c2.74,1.19,3.62,2.66,3.62,3.76,0,.9-.62,1.58-1.3,1.58-.37,0-.71-.17-1.02-.57.03-1.47-.71-3.45-1.55-4.61l.25-.17Z"/>
    <path class="cls-1" d="m186.94,14.96c.23-.59.54-1.7.74-2.54h-18.74c.14,2.09-1.02,3.36-2.46,3.36-.9,0-1.36-.51-1.36-1.1s.48-1.07,1.07-1.33c.99-.37,1.98-1.47,1.89-2.8l.45-.03c.17.45.25.88.34,1.27h8.11v-4.63l3.53.34c-.03.4-.34.59-1.24.74v3.56h2.94c.82-1.3,1.81-3.14,2.4-4.46l3.36,1.53c-.11.2-.28.28-.57.28-.14,0-.34-.03-.56-.08-.96.85-2.4,1.89-3.79,2.74h4.44l1.38-1.41,2.46,2.35c-.23.23-.54.28-1.1.31-.73.71-2.01,1.64-3,2.12l-.31-.2Zm-2.26,14.1h-10.2l2.49,1.89c-.14.17-.34.25-.65.25-.23,0-.48-.06-.79-.14-2.43,1.13-6.39,2.2-10.17,2.57l-.17-.45c3.45-.85,7.18-2.66,9.07-4.13h-2.6v.34s-.31.79-2.23.79v-11.11l2.43,1.02h12.58l.93-1.22,2.66,1.87c-.17.2-.59.42-1.07.51v7.94c0,.06-.65.65-2.26.65v-.79Zm-15.23-21.67c3.11.59,4.13,1.95,4.13,3,0,.76-.54,1.36-1.19,1.36-.28,0-.59-.14-.9-.42-.17-1.27-1.16-2.83-2.23-3.67l.2-.25Zm15.97,10.99c-.03.17-1.19.62-1.89.62h-.37v-.76h-9.98v.25s-.4.76-2.23.76v-5.93l2.4.99h9.55l.9-1.19,2.63,1.81c-.17.2-.54.4-1.02.51v2.94Zm-.74,2.37h-13.03v2.12h13.03v-2.12Zm0,4.89v-2.15h-13.03v2.15h13.03Zm-13.03.62v2.18h13.03v-2.18h-13.03Zm1.53-8.68h9.98v-2.66h-9.98v2.66Zm7.01,12.18c8.28.23,10.63,1.84,10.63,2.88,0,.57-.62.96-1.36.96-.4,0-.82-.08-1.19-.34-1.58-1.07-4.38-2.26-8.19-3.05l.11-.45Z"/>
  </g>
  <g>
    <path class="cls-2" d="m23.01,37.4c-1.19-.55-2.03-1.65-2.03-3.23s.89-2.7,2.03-3.23l.11.14c-1.05.59-1.72,1.67-1.72,3.08s.66,2.5,1.72,3.08l-.11.14Z"/>
    <path class="cls-2" d="m23.59,33.99h5.1l.43-.55.8.57c-.07.13-.17.18-.37.18h-5.92l-.05-.2Z"/>
    <path class="cls-2" d="m33.24,33.88l-.25.07v2.79c0,.35-.08.59-.62.65,0-.35-.15-.41-.58-.44v-.1h.67c.09,0,.12-.03.12-.11v-2.68c-.36.09-.77.19-1.26.3,0,1.02-.05,2.2-.76,3.02l-.11-.07c.43-.81.46-1.84.46-2.86l-.11.02c-.03.09-.09.14-.16.16l-.22-.54c.12,0,.29-.03.49-.05v-2.34l.49.22h.18c.06-.28.12-.68.17-.95l.72.13c-.02.1-.08.14-.26.15-.1.2-.27.46-.4.68h.68l.21-.28.57.42c-.05.06-.17.12-.3.14v1.59l.23-.03.02.11Zm-1.92-1.79v1.91c.37-.04.8-.1,1.26-.15v-1.76h-1.26Zm.35.38c.43.29.58.6.58.83,0,.2-.11.34-.23.34-.05,0-.12-.03-.17-.1-.01-.25-.08-.71-.28-1.01l.09-.05Zm.61,2.06c0,.08-.06.11-.21.13v1.48s-.05.14-.35.14v-1.8l.57.05Zm3.76-.61l.49.45c-.05.06-.12.08-.28.08-.23.63-.58,1.21-1.06,1.7.49.37,1.08.64,1.74.82v.07c-.2.02-.35.14-.42.35-.63-.23-1.17-.56-1.61-.97-.46.39-1.03.72-1.72.96l-.05-.12c.62-.28,1.14-.64,1.55-1.08-.43-.48-.74-1.08-.94-1.82h-.42l-.05-.17h2.48l.29-.28Zm-1.81-1.79c0,.6-.08,1.41-.89,1.95l-.08-.09c.49-.56.54-1.24.54-1.86v-.97l.5.23h1.06l.19-.25.54.43s-.13.08-.25.1v1.46c0,.12,0,.12.09.12h.39s.08,0,.11-.06c.06-.08.14-.36.19-.54h.07v.57c.15.06.18.08.18.15,0,.16-.12.26-.5.26h-.48c-.43,0-.47-.1-.47-.54v-1.52h-1.19v.57Zm-.34,2.23c.22.63.57,1.14,1.03,1.56.39-.46.67-.99.86-1.56h-1.89Z"/>
    <path class="cls-2" d="m40.24,32.62c-.06.04-.14.06-.31.07-.23.48-.58,1-1,1.47v.02c.94.19,1.24.6,1.24.87,0,.14-.09.25-.21.25-.06,0-.11-.02-.17-.06-.13-.32-.51-.72-.85-.95v2.91s-.05.17-.44.17v-2.76c-.35.33-.73.62-1.12.83l-.08-.08c.86-.59,1.76-1.79,2.16-2.79h-2.04l-.05-.17h1.12v-1.41l.78.07c-.01.11-.09.16-.33.19v1.15h.5l.3-.29.51.5Zm2.95,3.79l.61.44c-.06.1-.14.15-.33.15h-3.78l-.04-.17h1.86v-3.24h-1.38l-.04-.17h1.42v-2.44l.79.07c-.01.11-.1.17-.32.19v2.18h.72l.32-.42.59.43c-.06.1-.13.15-.32.15h-1.31v3.24h.89l.32-.43Z"/>
    <path class="cls-2" d="m49.9,31.22l.6.45c-.05.06-.17.11-.3.14v5.32s-.13.18-.45.18v-.46h-4.61v.34s-.03.19-.44.19v-6.09l.49.23h4.5l.22-.3Zm-4.77,5.46h4.61v-5h-4.61v5Zm3.88-3.88l.54.41c-.05.1-.14.15-.32.15h-.83v2.32c0,.35-.1.6-.77.67,0-.31-.25-.37-.87-.41v-.11h1.03c.14,0,.18-.04.18-.15v-2.32h-2.54l-.05-.17h2.59v-1.22l.72.06c0,.1-.05.15-.29.18v.99h.32l.28-.39Zm-2.94.93c.73.37.97.8.97,1.1,0,.21-.12.35-.26.35-.07,0-.14-.03-.2-.1-.02-.41-.3-.98-.58-1.3l.07-.05Z"/>
    <path class="cls-2" d="m51.19,32.86c.84.09,1.12.43,1.12.69,0,.14-.1.26-.23.26-.06,0-.11-.02-.17-.06-.12-.3-.44-.64-.75-.81l.04-.08Zm.38,2.59c.08,0,.11,0,.17-.14.03-.06.13-.25,1.39-3.1l.13.03c-.31.89-.92,2.55-1.03,2.89-.06.22-.11.43-.11.61,0,.29.17.59.17,1.08,0,.19,0,.59-.38.59-.12,0-.21-.12-.22-.34.04-.25.06-.5.06-.69,0-.67-.15-.72-.5-.76v-.15c.23,0,.31,0,.31,0h0Zm-.08-4.39c.86.12,1.15.49,1.15.75,0,.16-.1.28-.24.28-.06,0-.12-.02-.18-.07-.11-.32-.46-.7-.77-.9l.04-.07Zm5.46,2.7l.61.44c-.05.1-.14.14-.33.14h-2.35l.49.17c-.03.08-.09.12-.26.12-.3.64-.67,1.35-1.03,1.88l2.43-.15c-.18-.33-.41-.65-.62-.88l.07-.05c1.02.56,1.34,1.19,1.34,1.57,0,.23-.11.37-.25.37-.06,0-.14-.03-.21-.1-.03-.23-.12-.5-.26-.77-.74.16-1.75.34-3.14.57-.04.08-.11.14-.18.15l-.32-.65c.23,0,.54-.02.93-.04.23-.59.5-1.43.71-2.17h-1.61l-.04-.17h2.01v-1.59h-1.52l-.04-.17h1.56v-1.46l.78.07c0,.11-.08.16-.32.19v1.19h.91l.32-.41.6.43c-.05.1-.13.15-.32.15h-1.51v1.59h1.23l.32-.42Z"/>
    <path class="cls-2" d="m58.05,37.25c2.78-1.73,2.75-4,2.77-6.08l.78.07c-.01.09-.06.14-.29.17.17,2.1.83,4.16,3.15,5.54l-.02.08c-.24.02-.41.11-.49.37-1.81-1.27-2.44-3.11-2.68-4.94h0c-.11,1.74-.55,3.59-3.12,4.93l-.09-.12Z"/>
    <path class="cls-2" d="m66.78,33.95c1.15-.69,2.49-1.99,2.85-2.98l.89.17c-.02.08-.11.12-.29.13.74.85,1.97,1.67,3.16,2.17v.1c-.24.05-.42.23-.47.42-1.16-.63-2.23-1.63-2.81-2.62-.62.98-1.99,2.08-3.28,2.7l-.05-.1Zm5.4,3.04l.34-.44.65.46c-.05.1-.14.15-.34.15h-5.75l-.04-.17h2.78v-1.53h-2.02l-.05-.17h2.07v-1.38h-1.9l-.04-.17h3.49l.3-.38.59.39c-.05.11-.13.15-.32.15h-1.65v1.38h1.29l.32-.39.61.41c-.05.1-.13.15-.32.15h-1.9v1.53h1.9Z"/>
    <path class="cls-2" d="m79.41,31.22l.6.45c-.05.06-.17.11-.3.14v5.32s-.13.18-.45.18v-.46h-4.61v.34s-.03.19-.44.19v-6.09l.49.23h4.5l.22-.3Zm-4.77,5.46h4.61v-5h-4.61v5Zm3.84-1.37l.55.39c-.05.1-.13.14-.32.14h-3.76l-.04-.17h1.79v-1.55h-1.32l-.04-.17h1.37v-1.28h-1.57l-.05-.17h2.9l.29-.37.55.39c-.05.1-.13.15-.32.15h-1.37v1.28h.66l.28-.36.53.38c-.05.1-.13.14-.32.14h-1.15v1.55h1.06l.29-.37Zm-.92-1.01c.61.26.79.57.79.79,0,.15-.09.25-.2.25-.05,0-.11-.03-.17-.08-.05-.29-.28-.69-.5-.91l.07-.06Z"/>
    <path class="cls-2" d="m80.6,34.53c.59-.79,1.2-2.19,1.57-3.54l.71.23c-.03.08-.08.12-.26.12-.17.48-.38.95-.61,1.39l.23.09c-.02.06-.09.11-.21.12v4.29s-.19.15-.37.15h-.08v-3.9c-.28.43-.57.81-.88,1.12l-.1-.07Zm5.77,1.89l.66.46c-.06.1-.14.14-.34.14h-4.21s0-.01-.04-.17h1.98v-2.1h-1.53s0-.01-.04-.17h1.57v-1.84h-1.75l-.05-.17h3.25l.33-.43.62.45c-.05.1-.14.14-.33.14h-1.61v1.84h.86l.31-.4.6.42c-.06.1-.14.15-.32.15h-1.44v2.1h1.15l.34-.44Zm-2.66-5.42c1.17.24,1.53.75,1.53,1.08,0,.17-.1.29-.24.29-.06,0-.12-.02-.18-.06-.17-.44-.7-.96-1.14-1.23l.03-.08Z"/>
    <path class="cls-2" d="m92.98,34.41l.28-.46.68.35c-.04.11-.12.17-.29.2l-3.01.42v1.61c0,.23.03.26.37.26h1.83c.14,0,.23-.01.29-.12.07-.11.17-.53.28-1.04h.07v1.1c.21.07.25.1.25.17,0,.2-.21.29-.9.29h-1.81c-.66,0-.83-.11-.83-.66v-1.54l-2.55.35-.08-.17,2.63-.37v-1.38c-.62.15-1.28.28-1.92.36l-.04-.12c1.3-.26,2.84-.81,3.61-1.25l.55.43s-.08.05-.14.05c-.06,0-.12,0-.21-.04-.34.13-.76.27-1.21.4h.08c-.01.1-.06.14-.27.17v1.31l2.35-.32Zm-.15-1.43c.1-.19.23-.56.32-.83h-4.6c-.02.56-.37.91-.72.91-.17,0-.26-.09-.26-.2s.09-.21.19-.28c.3-.13.6-.51.59-.96h.12c.03.12.05.25.06.37h1.98v-1.03l.78.07c0,.1-.08.15-.32.19v.77h2.15l.3-.3.53.52s-.13.06-.26.07c-.19.24-.51.59-.77.77l-.08-.06Z"/>
    <path class="cls-2" d="m95.63,33.55v.62c0,.88-.08,2.26-1.07,3.21l-.1-.08c.66-.98.73-2.14.73-3.12v-1.01l.52.23h2.62c.16-.37.32-.89.43-1.27l.71.21c-.02.08-.1.1-.25.09-.17.29-.43.66-.7.97h1.34l.32-.41.62.43c-.06.1-.14.15-.34.15h-4.83Zm-.68-1.48l-.05-.17h2.53v-.9l.73.06c0,.1-.07.14-.28.17v.67h1.71l.32-.4.61.42c-.05.1-.13.14-.33.14h-5.23Zm4.89,4.89l.32-.41.61.42c-.06.1-.14.15-.33.15h-4.85l-.05-.17h2.35v-1.04h-1.39l-.05-.17h1.44v-.97h-1.17c-.2.42-.44.79-.71,1.04l-.1-.07c.28-.43.52-1.18.67-1.92l.64.17c-.02.08-.07.12-.23.12-.05.17-.12.34-.19.5h1.1v-.89l.73.06c0,.1-.08.14-.28.18v.65h.95l.32-.39.59.41c-.05.11-.13.15-.32.15h-1.53v.97h.81l.3-.38.58.4c-.06.1-.14.14-.32.14h-1.37v1.04h1.5Zm-3.61-4.82c.57.3.76.63.76.88,0,.2-.13.34-.27.34-.07,0-.14-.03-.21-.11,0-.34-.17-.79-.36-1.07l.08-.04Z"/>
    <path class="cls-2" d="m107.7,35.36c-.06.1-.13.14-.32.14h-2.38c.66.61,1.81,1.1,2.78,1.3v.08c-.19.03-.34.17-.39.37-.99-.32-2.01-.95-2.6-1.75h-.03v1.73s-.15.14-.38.14h-.07v-1.72c-.72.7-1.78,1.25-2.92,1.6l-.06-.12c.99-.39,1.9-.99,2.52-1.62h-2.39l-.05-.17h2.9v-.74h-2.15l-.04-.17h2.19v-.71h-2.5l-.04-.17h1.75s-.08-.04-.12-.08c-.03-.32-.28-.73-.51-.97l.06-.05c.65.25.86.59.86.82,0,.14-.07.24-.17.28h1.56c.21-.32.43-.76.58-1.1l.62.27s-.08.07-.15.07c-.04,0-.07,0-.11-.01-.18.23-.46.54-.73.77h1.09l.3-.37.57.39c-.06.1-.12.14-.32.14h-2.3v.71h1.47l.28-.36.55.38c-.05.1-.13.14-.32.14h-1.98v.74h2.04l.31-.39.59.41Zm0-3.04c-.06.1-.13.15-.32.15h-5.92l-.04-.17h1.54s-.09-.03-.14-.08c-.06-.34-.36-.78-.64-1.01l.05-.06c.74.25.98.63.98.88,0,.14-.08.25-.18.27h.64v-1.34l.7.06c0,.1-.08.14-.28.17v1.11h.88v-1.34l.71.06c0,.1-.07.14-.28.17v1.1h.31c.25-.33.54-.8.73-1.16l.62.3s-.07.06-.13.06c-.03,0-.08,0-.14-.02-.21.26-.55.57-.88.81h.89l.31-.39.59.41Z"/>
    <path class="cls-2" d="m110.53,32.97c-.06.1-.13.15-.31.15h-.75v4.08s-.05.19-.44.19v-4.26h-.77l-.05-.17h.82v-1.97l.74.07c-.01.1-.08.14-.3.17v1.73h.25l.28-.39.53.41Zm3.63,1.51l.52.41c-.05.05-.13.08-.27.1-.05,1.34-.15,2.01-.4,2.2-.16.13-.33.18-.61.18,0-.27-.11-.31-.55-.38v-.12c.18,0,.54.02.68.02.1,0,.15,0,.2-.06.14-.13.22-.74.27-1.93h-.71c-.1.85-.36,1.79-1.29,2.5l-.1-.1c.68-.71.9-1.57.97-2.39h-.63s-.12.06-.23.08c-.05,1.41-.14,2.03-.38,2.21-.15.12-.31.17-.57.17,0-.22-.04-.3-.46-.36v-.12c.15,0,.45.01.57.01.1,0,.14,0,.19-.05.14-.13.21-.71.26-1.95h-.63c-.08.82-.32,1.76-1.12,2.47l-.11-.1c.59-.7.77-1.57.83-2.37h-.67l-.05-.17h.73c.01-.3.02-.6.02-.88l.67.05c0,.09-.06.13-.25.14,0,.21-.01.44-.03.68h.56l.21-.25.43.34-.02-.08h.72c.02-.3.02-.6.03-.88l.68.06c-.01.08-.06.12-.25.14,0,.21-.01.44-.03.68h.63l.22-.26Zm-3.61-2.45l-.05-.17h1.44c.08-.28.12-.58.14-.89l.74.1c-.02.1-.1.13-.28.14-.03.22-.08.44-.14.65h1.25l.21-.25.52.39c-.05.05-.13.09-.26.1-.13,1.48-.43,1.66-1.08,1.66,0-.26-.11-.31-.59-.37v-.12c.2,0,.61.03.74.03.11,0,.17,0,.22-.05.13-.1.23-.52.3-1.23h-1.36c-.3.83-.92,1.52-2.2,1.91l-.06-.12c1.03-.39,1.54-1.02,1.8-1.79h-1.34Z"/>
    <path class="cls-2" d="m115.13,33.78c1.19-.7,2.42-1.88,2.9-2.83l.77.21c-.02.08-.1.11-.28.14.69.79,1.77,1.52,3.02,1.95v.11c-.22.05-.35.22-.41.4-1.16-.59-2.17-1.44-2.73-2.39-.65.88-1.89,1.93-3.23,2.52l-.04-.11Zm5.22.88l.35-.44.65.46c-.05.1-.13.14-.33.14h-3.3l.32.11c-.03.08-.11.1-.27.09-.25.48-.67,1.12-1.08,1.63.89-.03,2.06-.08,3.29-.14-.3-.36-.69-.69-1.03-.92l.05-.08c1.46.48,1.9,1.17,1.9,1.56,0,.17-.1.29-.23.29-.06,0-.13-.03-.2-.08-.08-.2-.21-.41-.38-.63-.91.13-2.2.28-3.99.47-.04.08-.1.12-.17.14l-.37-.6c.23,0,.55,0,.92-.02.28-.55.59-1.27.78-1.84h-1.89l-.05-.17h5.01Zm-.94-1.66l.63.44c-.06.1-.14.14-.32.14h-3.2l-.05-.17h2.6l.34-.42Z"/>
    <path class="cls-2" d="m122.1,30.95c1.19.55,2.04,1.66,2.04,3.23s-.89,2.7-2.04,3.23l-.11-.14c1.06-.59,1.72-1.67,1.72-3.08s-.66-2.5-1.72-3.08l.11-.14Z"/>
  </g>
</svg>
