<?xml version="1.0" encoding="utf-8"?>
<!-- Generator: Adobe Illustrator 27.6.1, SVG Export Plug-In . SVG Version: 6.00 Build 0)  -->
<svg version="1.1" id="もじ" xmlns="http://www.w3.org/2000/svg" xmlns:xlink="http://www.w3.org/1999/xlink" x="0px" y="0px"
	 viewBox="0 0 382.5 58.4" style="enable-background:new 0 0 382.5 58.4;" xml:space="preserve">
<style type="text/css">
	.st0{fill:#464646;}
</style>
<g>
	<g>
		<path class="st0" d="M19,6.2c-2.2,5.1-3.5,7.6-4.3,9.2l1.7,1c0.5,0.3,0.8,0.7,0.8,1c0,0.4-0.1,0.6-1.5,2c-0.3,6.5-0.3,10-0.4,13.2
			c0,6.3,0.5,16.3,0.4,22.5c0,3.3-2.4,3.5-3.3,3.5c-1.8,0-2-1.1-2-1.8c0-1.8,0.5-9.9,0.6-11.6c0.2-6.9,0.3-15.9,0.4-23.9
			C9.4,24.7,5.5,30.5,0.3,35L0,34.7C6.6,25.1,13.2,9.1,14.3,3.9c0.2-0.8,0.2-1.1,0.4-3.9l6.5,3.3c0.4,0.2,0.7,0.6,0.7,1.1
			C21.9,5,21.6,5.2,19,6.2z M57.7,15.7h-31c-0.8,0-4.4,0-7.5,0.6L18,13.7c4.3,0.4,8.6,0.4,9.8,0.4h21.7l2.5-2.9
			c0.5-0.6,0.6-0.8,1-0.8s0.6,0.2,1.2,0.7l3.9,2.9c0.5,0.4,0.6,0.7,0.6,1C58.7,15.6,58.2,15.7,57.7,15.7z M51.2,31.5H32.1
			c-1.1,0-4.5,0-7.5,0.6l-1.3-2.5c3.9,0.3,7.9,0.4,9.8,0.4h10.9l1.9-2.8c0.3-0.5,0.7-0.8,1-0.8c0.3,0,0.5,0.1,1.1,0.6l3.6,2.8
			c0.4,0.3,0.6,0.6,0.6,1C52.2,31.5,51.6,31.5,51.2,31.5z M51.7,7.2H32c-1.1,0-4.4,0-7.4,0.6l-1.3-2.5c3.9,0.3,7.9,0.4,9.7,0.4h10.7
			l2.4-2.9c0.4-0.6,0.6-0.8,1-0.8s0.6,0.2,1.2,0.7L52,5.5c0.5,0.4,0.6,0.6,0.6,1C52.7,7.1,52.1,7.2,51.7,7.2z M51,23.5H32.1
			c-1.1,0-4.4,0-7.4,0.6l-1.3-2.5c3.9,0.3,7.9,0.4,9.7,0.4h10.4l2-2.7c0.4-0.6,0.6-0.8,1-0.8c0.3,0,0.6,0.3,1.3,0.8l3.6,2.7
			c0.5,0.4,0.6,0.8,0.6,1C51.9,23.4,51.3,23.5,51,23.5z M52.1,41.6c0.1,1.7,0.4,10.7,0.4,11.6c0.1,1.5,0.1,1.7,0.1,2
			c0,2.5-2.8,2.7-3.2,2.7c-1.9,0-1.9-0.8-1.8-4.5H28.6c0.1,1,0.1,1.6-0.3,2.2c-0.4,0.9-2.2,1.6-3.1,1.6c-1.7,0-1.6-1.3-1.6-1.9
			c0-1.8,0.5-9.9,0.5-11.7c0-4.8-0.2-6.3-0.5-7.6l5.4,2.6h18.4l1.7-1.8c0.4-0.4,0.6-0.6,0.9-0.6c0.4,0,0.6,0.1,1.3,0.6l2.2,1.8
			c0.5,0.4,0.7,0.6,0.7,1C54.1,40.4,52.8,41.1,52.1,41.6z M47.7,40.2H28.6l0,11.7h19.1L47.7,40.2z"/>
		<path class="st0" d="M82.2,33l0.1,3.9c4.9,0.3,8.9,2.7,8.9,5.8c0,1.4-0.8,2.4-2.2,2.4s-1.8-0.8-3.2-3.3c-0.3-0.6-2.1-3.8-3.5-4.5
			c0,4.8,0,7.8,0.2,12.7c0,0.8,0.2,3.9,0.2,4.6c0,0.7-0.1,1.5-1,2.2c-1,0.6-2,0.7-2.5,0.7c-1.2,0-1.5-0.6-1.5-1.7
			c0-0.4,0.5-13.8,0.6-16.4c-2.7,4.1-8.3,10.3-13.5,13.4l-0.3-0.4C70.4,45.7,75,38,77.1,33H73c0.1,1.7,0.2,3.8-2.7,3.8
			c-1.3,0-1.4-0.9-1.4-1.7c0-1.6,0.3-8.7,0.3-10.2c0-4.5-0.2-6.9-0.5-9.8l5,2.9h4.6l-0.1-7.7h-3.2c-1.7,0-4.6,0.1-7.5,0.6l-1.3-2.5
			c4.4,0.4,9,0.4,9.8,0.4h2.2c-0.1-4.5-0.1-5-0.5-8.3L83.1,2c0.6,0.2,1.3,0.4,1.3,1s-0.5,0.9-2.1,1.8l0,3.9h4.3l1.9-2.3
			c0.4-0.4,0.6-0.8,1-0.8c0.3,0,0.8,0.4,1.2,0.7l2.5,2.2c0.4,0.3,0.6,0.6,0.6,1c0,0.6-0.5,0.6-1,0.6H82.3L82.2,18h4.4l1.4-1.5
			c0.4-0.5,0.8-0.8,1.2-0.8c0.3,0,0.6,0.3,1.1,0.6l2.2,1.8c0.4,0.3,0.6,0.7,0.6,1c0,0.5-0.3,1-1.7,2c0,1.5-0.1,4.6,0,6.6
			c0,0.6,0.2,4.8,0.2,5.2c0,2.8-2.5,2.8-2.9,2.8c-1.4,0-1.4-0.7-1.3-2.7H82.2z M78.2,31.5l0-12H73l0,12H78.2z M87.4,31.5l0-12h-5.3
			c0,0.8,0,9,0,12H87.4z M104.7,47.2c0.3,0.2,0.7,0.6,0.7,1c0,0.9-1.2,0.9-2.7,0.9c-3.2,2.2-9,6-16.6,8.3L85.9,57
			c3.6-2.4,10.1-7.1,14.5-12.8L104.7,47.2z M101.8,6.2c-1.6,0-4.6,0.1-7.5,0.6L93,4.3c4.4,0.4,9,0.4,9.8,0.4h12.6l2-2.6
			c0.3-0.4,0.6-0.8,1-0.8s0.6,0.1,1.3,0.7l3.4,2.6c0.3,0.3,0.6,0.6,0.6,1c0,0.6-0.5,0.7-1,0.7h-12.8c-1.5,2.4-6.1,8.3-6.6,9h11.1
			l1.4-1.6c0.3-0.3,0.7-0.7,1-0.7c0.4,0,0.8,0.2,1.1,0.4l2.9,2.2c0.2,0.1,0.6,0.5,0.6,1c0,0.6-0.5,1-2.2,2c0,11.4,0,13,0.1,17.6
			c0.1,1.8,0.2,4.8,0.2,6.7c0,1.5-0.6,2-1.1,2.2c-0.7,0.4-1.5,0.6-2,0.6c-1.7,0-1.6-1.3-1.5-2.5h-14.8c0.2,2.7-3.1,2.9-3.3,2.9
			c-1.2,0-1.2-1-1.2-1.6c0-2.7,0.4-15,0.4-17.5c0-8.3-0.2-11.5-0.6-14.4l5.1,2.7h1.3c0.1-0.3,1.7-8.2,1.7-9H101.8z M100.1,33.8
			l0,7.8h14.8l0-7.8H100.1z M100.2,25.1l0,7.2H115l0-7.2H100.2z M100.2,16.7l0,6.8H115l0-6.8H100.2z M110,44.7
			c2.9,0.6,13.3,3.4,13.3,8.6c0,1.8-1.1,2.8-2.5,2.8c-1.5,0-1.8-0.4-4.5-4.4c-0.6-0.8-3.2-4.5-6.4-6.7L110,44.7z"/>
	</g>
	<g>
		<path class="st0" d="M227.1,52.2c-1.8,0.6-8.7,1-12.6,1c-2.2,0-12.5,0.1-17.2-3.2c-2.5-1.7-4-4.6-4-7.2c0-3.9,2.6-10.1,12.3-16.2
			c-0.8-1.1-2.5-3.7-2.5-7.4c-0.2-9.9-0.2-11-0.5-12.3c-0.4-1.6-1.5-2.8-2.3-3.2c-1.8-1-2-1-2.5-1.3c0.8-0.3,2-0.9,3.6-0.9
			c2.8,0,7.3,2.5,7.3,4.5c0,0.3-0.3,1.1-0.4,1.4c-0.5,1.5-1.3,3.8-1.4,8.8c0,3.1,0.1,6.2,1.4,9c3.7-2.1,7.6-3.8,11.7-5.3
			c1.1-0.4,1.8-0.8,1.8-1.7c0-0.4-0.1-1-0.5-2c1,0.3,3,0.6,4.2,2c1,1.1,1.7,2.7,1.7,3.4c0,1.8-0.5,1.8-3.9,2.4
			c-9,1.4-27.7,9.4-27.7,18.3c0,6.8,9.5,6.8,13.6,6.8c5,0,7.4-0.4,13.7-1.5c0.9-0.1,1.7-0.3,2.4-0.3c1.7,0,4.3,0.6,4.3,2.7
			C229.5,51.4,227.9,51.9,227.1,52.2z"/>
		<path class="st0" d="M272.7,44.3c-0.6,0-1-0.2-3.6-2.2c-2.9-2-11.9-4.1-17.8-4.1c-2.5,0-8.8,0.5-8.9,6.5c0,6.6,9.3,7.2,13.5,7.2
			c1.2,0,6.4-0.4,7.5-0.4c1.7,0,4.1,0.7,4.1,2.5c0,2.4-2.5,2.4-6,2.4c-4.8,0-21.9,0-21.8-10.9c0-8.6,8.8-9.2,13.7-9.2
			c4.8,0,9.7,0.6,14.4,1.6c0.2,0.1,0.3,0.1,0.4,0.1c0.3,0,0.6,0,0.6-0.4s-0.3-0.8-0.6-1.4c-0.2-0.3-2-2.9-6.5-9.5
			c-6.6,2.2-12.6,2.9-14.5,2.9c-3.7,0-6.8-2.3-7.9-5.1c2.3,1,4.3,1.9,7.6,1.9c2.6,0,7.8-0.7,12.9-2.7c-2.3-3.9-3.4-6.4-4-7.6
			c-1.1,0.4-6.1,1.8-8.7,1.8c-2.2,0-5.8-1.4-7.1-4.3c2.2,0.9,3.2,1.3,5.8,1.3c3.1,0,6.1-0.8,8.7-1.7c-0.4-1-2.1-5.3-2.6-6.2
			c-1.2-2.2-4-2.6-6.6-2.4c0.7-1.4,1.6-3.1,5.3-3.1c1.3,0,5.3,0.5,5.7,2.7c0.1,0.6,0.2,3.8,0.4,4.3c0.3,1.3,0.6,2.5,0.9,3.4
			c0.8-0.3,2.5-1.2,4.1-2.3c2.3-1.5,2.5-1.7,3.6-1.7c1.4,0,2.6,0.8,2.6,1.8c0,0.7-0.3,1.3-1.6,2c-2.9,1.7-5,2.5-7.6,3.4
			c1.5,3.4,2.6,5.4,3.9,7.4c1.3-0.6,3.1-1.5,5.6-3.1c1.9-1.1,2.2-1.3,3.2-1.3c1.7,0,2.9,0.9,2.9,1.8c0,0.9-1,1.5-1.8,2
			c-0.8,0.4-3.9,2-8,3.6c2.6,3.7,5.5,7.1,8.5,10.4c2,2.2,2,2.9,2,3.8C275,41,274.3,44.3,272.7,44.3z"/>
		<path class="st0" d="M309.3,53.7l0-0.4c16-4.5,22.4-13.3,22.4-21.4c0-6.2-4.9-13.1-16.4-13.4c-4.4,9.1-6.9,13.9-11.1,19.3
			c0.2,0.3,1.4,1.7,2.2,2.6c1,1.2,2.2,2.7,2.2,4.2c0,1-0.5,1.9-1.5,1.9c-2.4,0-4.9-3.9-5.7-5.2c-2.5,3-6.8,7.5-9.8,7.5
			c-0.9,0-1.5-0.4-2.1-1.1c-0.4-0.5-1.8-3.8-2.1-4.5c-0.7-1.3-1.1-2.1-1.1-3.6c0-2.2,0.9-8.5,8.6-15.1c-2.5-9.7-2.8-10.7-5-14.4
			c2.2,0.3,5.1,2.5,6.5,5.9c0.1,0.3,1.6,5.8,1.6,6.2c4.1-2.9,8.9-4.8,13.9-5.5c0.4-0.9,2.5-6,2.5-7.8c0-1.7-0.9-2.5-3.7-4.8
			c0.6-0.3,1.1-0.4,2-0.4c3.6,0,7.3,2.5,7.3,5.3c0,1.3-0.3,1.8-1.7,4c-0.6,1.1-0.9,1.5-1.8,3.4c12.7,0,20.3,6.9,20.2,16.5
			C336.5,45.8,323.1,53.7,309.3,53.7z M295.3,27.3c-4.8,5.3-5.7,9.9-5.8,13c0,1.7,0.3,4.3,2.5,4.3c2.5,0,6.6-5,7.5-6.3
			C298.2,35.6,296.8,32.3,295.3,27.3z M298.3,24.5c1.1,4.1,2.1,7.1,3.8,10.2c4.1-6.3,7.1-12.1,8.6-15.8
			C306.4,19.6,302.2,21.4,298.3,24.5z"/>
		<path class="st0" d="M380.2,44.3c-0.6,0-1-0.2-3.6-2.2c-2.9-2-11.9-4.1-17.8-4.1c-2.5,0-8.8,0.5-8.9,6.5c0,6.6,9.3,7.2,13.5,7.2
			c1.2,0,6.4-0.4,7.5-0.4c1.7,0,4.1,0.7,4.1,2.5c0,2.4-2.5,2.4-6,2.4c-4.8,0-21.9,0-21.8-10.9c0-8.6,8.8-9.2,13.7-9.2
			c4.8,0,9.7,0.6,14.4,1.6c0.2,0.1,0.3,0.1,0.4,0.1c0.3,0,0.6,0,0.6-0.4s-0.3-0.8-0.6-1.4c-0.2-0.3-2-2.9-6.5-9.5
			c-6.6,2.2-12.6,2.9-14.5,2.9c-3.7,0-6.8-2.3-7.9-5.1c2.3,1,4.3,1.9,7.6,1.9c2.6,0,7.8-0.7,12.9-2.7c-2.3-3.9-3.4-6.4-4-7.6
			c-1.1,0.4-6.1,1.8-8.7,1.8c-2.2,0-5.8-1.4-7.1-4.3c2.2,0.9,3.2,1.3,5.8,1.3c3.1,0,6.1-0.8,8.7-1.7c-0.4-1-2.1-5.3-2.6-6.2
			c-1.2-2.2-4-2.6-6.6-2.4c0.7-1.4,1.6-3.1,5.3-3.1c1.3,0,5.3,0.5,5.7,2.7c0.1,0.6,0.2,3.8,0.4,4.3c0.3,1.3,0.6,2.5,0.9,3.4
			c0.8-0.3,2.5-1.2,4.1-2.3c2.3-1.5,2.5-1.7,3.6-1.7c1.4,0,2.6,0.8,2.6,1.8c0,0.7-0.3,1.3-1.6,2c-2.9,1.7-5,2.5-7.6,3.4
			c1.5,3.4,2.6,5.4,3.9,7.4c1.3-0.6,3.1-1.5,5.6-3.1c1.9-1.1,2.2-1.3,3.2-1.3c1.7,0,2.9,0.9,2.9,1.8c0,0.9-1,1.5-1.8,2
			c-0.8,0.4-3.9,2-8,3.6c2.6,3.7,5.5,7.1,8.5,10.4c2,2.2,2,2.9,2,3.8C382.5,41,381.8,44.3,380.2,44.3z"/>
	</g>
	<g>
		<path class="st0" d="M169.5,53.5c-1.3,0.4-6.5,0.8-9.4,0.8c-1.6,0-9.4,0-12.8-2.4c-1.8-1.3-3-3.4-3-5.4c0-2.9,1.9-7.5,9.1-12.1
			c-0.6-0.9-1.8-2.8-1.9-5.5c-0.1-7.4-0.2-8.2-0.4-9.2c-0.3-1.2-1.1-2.1-1.7-2.4c-1.3-0.7-1.5-0.8-1.8-1c0.6-0.2,1.5-0.7,2.7-0.7
			c2.1,0,5.5,1.9,5.4,3.3c0,0.2-0.2,0.8-0.3,1c-0.4,1.1-1,2.8-1,6.6c0,2.3,0.1,4.7,1,6.7c2.8-1.6,5.7-2.8,8.7-3.9
			c0.9-0.3,1.4-0.6,1.4-1.3c0-0.3-0.1-0.7-0.4-1.5c0.8,0.2,2.2,0.5,3.1,1.5c0.8,0.9,1.3,2,1.3,2.6c0,1.3-0.3,1.3-2.9,1.8
			c-6.7,1-20.7,7-20.7,13.7c0,5.1,7.1,5.1,10.1,5.1c3.7,0,5.6-0.3,10.2-1.1c0.7-0.1,1.2-0.2,1.8-0.2c1.3,0,3.2,0.5,3.2,2
			C171.3,52.9,170.1,53.3,169.5,53.5z"/>
	</g>
</g>
</svg>
