<svg enable-background="new 0 0 542.9 499.9" height="499.9" viewBox="0 0 542.9 499.9" width="542.9" xmlns="http://www.w3.org/2000/svg"><g style="fill:none;stroke:#000;stroke-width:17;stroke-linecap:round;stroke-linejoin:round;stroke-miterlimit:10"><path d="m234.3 357.1v35.6c0 14.9-12.1 27-27 27h-171.8c-14.9 0-27-12.1-27-27v-357.2c0-14.9 12.1-27 27-27h171.9c14.9 0 27 12.1 27 27v9.6 312z"/><path d="m89.4 23.4h73.7"/><path d="m99 391.9h53.9"/><path d="m335.5 491.4h-20.3c-8.5 0-15.4-6.9-15.4-15.4v-98c0-8.5 6.9-15.4 15.4-15.4h203.8c8.5 0 15.4 6.9 15.4 15.4v98c0 8.5-6.9 15.4-15.4 15.4h-5.5z"/><path d="m525.9 405.2v45.6"/><path d="m323.1 419.6v20.9"/><path d="m326.8 236.4-33.9-42.4 33.9-42.4"/><path d="m425 309.6c0-63.4-51.9-115.3-115.3-115.3"/></g></svg>